%TF.GenerationSoftware,KiCad,Pcbnew,6.0.6-3a73a75311~116~ubuntu20.04.1*%
%TF.CreationDate,2022-08-17T13:19:53+08:00*%
%TF.ProjectId,Maple_Eye_Alef_V12,4d61706c-655f-4457-9965-5f416c65665f,rev?*%
%TF.SameCoordinates,Original*%
%TF.FileFunction,Profile,NP*%
%FSLAX46Y46*%
G04 Gerber Fmt 4.6, Leading zero omitted, Abs format (unit mm)*
G04 Created by KiCad (PCBNEW 6.0.6-3a73a75311~116~ubuntu20.04.1) date 2022-08-17 13:19:53*
%MOMM*%
%LPD*%
G01*
G04 APERTURE LIST*
%TA.AperFunction,Profile*%
%ADD10C,0.150000*%
%TD*%
%TA.AperFunction,Profile*%
%ADD11C,0.100000*%
%TD*%
G04 APERTURE END LIST*
D10*
X217516861Y-150099994D02*
G75*
G03*
X219999992Y-147476295I-70261J2553394D01*
G01*
X172477803Y-50100089D02*
G75*
G03*
X169999990Y-52730310I76197J-2554011D01*
G01*
X172488739Y-130703189D02*
G75*
G03*
X169999990Y-133326905I67461J-2556211D01*
G01*
X171331992Y-136824593D02*
X171331992Y-139262993D01*
X169999995Y-147606600D02*
G75*
G03*
X172627800Y-150100005I2560605J67200D01*
G01*
X170000006Y-109815661D02*
G75*
G03*
X172628105Y-112313593I2562994J65061D01*
G01*
X219999992Y-147476295D02*
X219999992Y-52579731D01*
X179078992Y-112313593D02*
X179078992Y-130703193D01*
X179078992Y-112313593D02*
X172628105Y-112313593D01*
X220000000Y-52579731D02*
G75*
G03*
X217374090Y-50100001I-2552800J-73069D01*
G01*
X171331992Y-139262993D02*
X169999990Y-139262993D01*
X172477800Y-50100001D02*
X217374090Y-50100001D01*
X172627800Y-150100005D02*
X217516861Y-150100005D01*
X169999990Y-147606600D02*
X169999990Y-139262993D01*
X179078992Y-130703193D02*
X172488739Y-130703193D01*
X169999990Y-109815661D02*
X169999990Y-52730310D01*
X169999990Y-136824593D02*
X169999990Y-133326905D01*
X169999990Y-136824593D02*
X171331992Y-136824593D01*
D11*
%TO.C,MENU1*%
X218560203Y-77101985D02*
G75*
G03*
X218575051Y-77100779I40322J-404435D01*
G01*
X216760203Y-77101985D02*
G75*
G03*
X216775051Y-77100779I40322J-404435D01*
G01*
%TO.C,DOWN1*%
X216760203Y-68001985D02*
G75*
G03*
X216775051Y-68000779I40322J-404435D01*
G01*
X218560203Y-68001985D02*
G75*
G03*
X218575051Y-68000779I40322J-404435D01*
G01*
%TO.C,UP1*%
X218560203Y-59001985D02*
G75*
G03*
X218575051Y-59000779I40322J-404435D01*
G01*
X216760203Y-59001985D02*
G75*
G03*
X216775051Y-59000779I40322J-404435D01*
G01*
%TO.C,PLAY1*%
X216760203Y-86101985D02*
G75*
G03*
X216775051Y-86100779I40322J-404435D01*
G01*
X218560203Y-86101985D02*
G75*
G03*
X218575051Y-86100779I40322J-404435D01*
G01*
%TD*%
M02*
