%TF.GenerationSoftware,KiCad,Pcbnew,6.0.6-3a73a75311~116~ubuntu20.04.1*%
%TF.CreationDate,2022-08-17T13:19:53+08:00*%
%TF.ProjectId,Maple_Eye_Alef_V12,4d61706c-655f-4457-9965-5f416c65665f,rev?*%
%TF.SameCoordinates,Original*%
%TF.FileFunction,Soldermask,Bot*%
%TF.FilePolarity,Negative*%
%FSLAX46Y46*%
G04 Gerber Fmt 4.6, Leading zero omitted, Abs format (unit mm)*
G04 Created by KiCad (PCBNEW 6.0.6-3a73a75311~116~ubuntu20.04.1) date 2022-08-17 13:19:53*
%MOMM*%
%LPD*%
G01*
G04 APERTURE LIST*
G04 Aperture macros list*
%AMRoundRect*
0 Rectangle with rounded corners*
0 $1 Rounding radius*
0 $2 $3 $4 $5 $6 $7 $8 $9 X,Y pos of 4 corners*
0 Add a 4 corners polygon primitive as box body*
4,1,4,$2,$3,$4,$5,$6,$7,$8,$9,$2,$3,0*
0 Add four circle primitives for the rounded corners*
1,1,$1+$1,$2,$3*
1,1,$1+$1,$4,$5*
1,1,$1+$1,$6,$7*
1,1,$1+$1,$8,$9*
0 Add four rect primitives between the rounded corners*
20,1,$1+$1,$2,$3,$4,$5,0*
20,1,$1+$1,$4,$5,$6,$7,0*
20,1,$1+$1,$6,$7,$8,$9,0*
20,1,$1+$1,$8,$9,$2,$3,0*%
G04 Aperture macros list end*
%TA.AperFunction,Profile*%
%ADD10C,0.150000*%
%TD*%
%ADD11C,0.152400*%
%TA.AperFunction,Profile*%
%ADD12C,0.100000*%
%TD*%
%ADD13C,0.700000*%
%ADD14C,4.400000*%
%ADD15C,0.600000*%
%ADD16C,1.879600*%
%ADD17RoundRect,0.100000X0.100000X-1.900000X0.100000X1.900000X-0.100000X1.900000X-0.100000X-1.900000X0*%
G04 APERTURE END LIST*
D10*
X217516861Y-150099994D02*
G75*
G03*
X219999992Y-147476295I-70261J2553394D01*
G01*
X172477803Y-50100089D02*
G75*
G03*
X169999990Y-52730310I76197J-2554011D01*
G01*
X172488739Y-130703189D02*
G75*
G03*
X169999990Y-133326905I67461J-2556211D01*
G01*
X171331992Y-136824593D02*
X171331992Y-139262993D01*
X169999995Y-147606600D02*
G75*
G03*
X172627800Y-150100005I2560605J67200D01*
G01*
X170000006Y-109815661D02*
G75*
G03*
X172628105Y-112313593I2562994J65061D01*
G01*
X219999992Y-147476295D02*
X219999992Y-52579731D01*
X179078992Y-112313593D02*
X179078992Y-130703193D01*
X179078992Y-112313593D02*
X172628105Y-112313593D01*
X220000000Y-52579731D02*
G75*
G03*
X217374090Y-50100001I-2552800J-73069D01*
G01*
X171331992Y-139262993D02*
X169999990Y-139262993D01*
X172477800Y-50100001D02*
X217374090Y-50100001D01*
X172627800Y-150100005D02*
X217516861Y-150100005D01*
X169999990Y-147606600D02*
X169999990Y-139262993D01*
X179078992Y-130703193D02*
X172488739Y-130703193D01*
X169999990Y-109815661D02*
X169999990Y-52730310D01*
X169999990Y-136824593D02*
X169999990Y-133326905D01*
X169999990Y-136824593D02*
X171331992Y-136824593D01*
D11*
X209567800Y-53319314D02*
X209059800Y-54081314D01*
X209059800Y-53319314D02*
X209567800Y-54081314D01*
X208769514Y-54081314D02*
X208769514Y-53319314D01*
X208479228Y-53319314D01*
X208406657Y-53355600D01*
X208370371Y-53391885D01*
X208334085Y-53464457D01*
X208334085Y-53573314D01*
X208370371Y-53645885D01*
X208406657Y-53682171D01*
X208479228Y-53718457D01*
X208769514Y-53718457D01*
X208007514Y-53319314D02*
X208007514Y-53936171D01*
X207971228Y-54008742D01*
X207934942Y-54045028D01*
X207862371Y-54081314D01*
X207717228Y-54081314D01*
X207644657Y-54045028D01*
X207608371Y-54008742D01*
X207572085Y-53936171D01*
X207572085Y-53319314D01*
X206846371Y-54081314D02*
X207209228Y-54081314D01*
X207209228Y-53319314D01*
X206628657Y-53863600D02*
X206265800Y-53863600D01*
X206701228Y-54081314D02*
X206447228Y-53319314D01*
X206193228Y-54081314D01*
X205685228Y-53682171D02*
X205576371Y-53718457D01*
X205540085Y-53754742D01*
X205503800Y-53827314D01*
X205503800Y-53936171D01*
X205540085Y-54008742D01*
X205576371Y-54045028D01*
X205648942Y-54081314D01*
X205939228Y-54081314D01*
X205939228Y-53319314D01*
X205685228Y-53319314D01*
X205612657Y-53355600D01*
X205576371Y-53391885D01*
X205540085Y-53464457D01*
X205540085Y-53537028D01*
X205576371Y-53609600D01*
X205612657Y-53645885D01*
X205685228Y-53682171D01*
X205939228Y-53682171D01*
X205213514Y-54045028D02*
X205104657Y-54081314D01*
X204923228Y-54081314D01*
X204850657Y-54045028D01*
X204814371Y-54008742D01*
X204778085Y-53936171D01*
X204778085Y-53863600D01*
X204814371Y-53791028D01*
X204850657Y-53754742D01*
X204923228Y-53718457D01*
X205068371Y-53682171D01*
X205140942Y-53645885D01*
X205177228Y-53609600D01*
X205213514Y-53537028D01*
X205213514Y-53464457D01*
X205177228Y-53391885D01*
X205140942Y-53355600D01*
X205068371Y-53319314D01*
X204886942Y-53319314D01*
X204778085Y-53355600D01*
X204451514Y-54008742D02*
X204415228Y-54045028D01*
X204451514Y-54081314D01*
X204487800Y-54045028D01*
X204451514Y-54008742D01*
X204451514Y-54081314D01*
X203653228Y-54008742D02*
X203689514Y-54045028D01*
X203798371Y-54081314D01*
X203870942Y-54081314D01*
X203979800Y-54045028D01*
X204052371Y-53972457D01*
X204088657Y-53899885D01*
X204124942Y-53754742D01*
X204124942Y-53645885D01*
X204088657Y-53500742D01*
X204052371Y-53428171D01*
X203979800Y-53355600D01*
X203870942Y-53319314D01*
X203798371Y-53319314D01*
X203689514Y-53355600D01*
X203653228Y-53391885D01*
X203181514Y-53319314D02*
X203036371Y-53319314D01*
X202963800Y-53355600D01*
X202891228Y-53428171D01*
X202854942Y-53573314D01*
X202854942Y-53827314D01*
X202891228Y-53972457D01*
X202963800Y-54045028D01*
X203036371Y-54081314D01*
X203181514Y-54081314D01*
X203254085Y-54045028D01*
X203326657Y-53972457D01*
X203362942Y-53827314D01*
X203362942Y-53573314D01*
X203326657Y-53428171D01*
X203254085Y-53355600D01*
X203181514Y-53319314D01*
X202528371Y-54081314D02*
X202528371Y-53319314D01*
X202274371Y-53863600D01*
X202020371Y-53319314D01*
X202020371Y-54081314D01*
D12*
%TO.C,MENU1*%
X218560203Y-77101985D02*
G75*
G03*
X218575051Y-77100779I40322J-404435D01*
G01*
X216760203Y-77101985D02*
G75*
G03*
X216775051Y-77100779I40322J-404435D01*
G01*
%TO.C,DOWN1*%
X216760203Y-68001985D02*
G75*
G03*
X216775051Y-68000779I40322J-404435D01*
G01*
X218560203Y-68001985D02*
G75*
G03*
X218575051Y-68000779I40322J-404435D01*
G01*
%TO.C,UP1*%
X218560203Y-59001985D02*
G75*
G03*
X218575051Y-59000779I40322J-404435D01*
G01*
X216760203Y-59001985D02*
G75*
G03*
X216775051Y-59000779I40322J-404435D01*
G01*
%TO.C,PLAY1*%
X216760203Y-86101985D02*
G75*
G03*
X216775051Y-86100779I40322J-404435D01*
G01*
X218560203Y-86101985D02*
G75*
G03*
X218575051Y-86100779I40322J-404435D01*
G01*
%TD*%
D13*
%TO.C,H4*%
X216033274Y-54066726D03*
X218366726Y-51733274D03*
X218366726Y-54066726D03*
X217200000Y-51250000D03*
X216033274Y-51733274D03*
D14*
X217200000Y-52900000D03*
D13*
X218850000Y-52900000D03*
X215550000Y-52900000D03*
X217200000Y-54550000D03*
%TD*%
%TO.C,H2*%
X217200000Y-145650000D03*
X218366726Y-148466726D03*
X216033274Y-148466726D03*
X215550000Y-147300000D03*
X218850000Y-147300000D03*
D14*
X217200000Y-147300000D03*
D13*
X218366726Y-146133274D03*
X217200000Y-148950000D03*
X216033274Y-146133274D03*
%TD*%
%TO.C,H3*%
X173966726Y-51733274D03*
D14*
X172800000Y-52900000D03*
D13*
X172800000Y-51250000D03*
X171633274Y-54066726D03*
X174450000Y-52900000D03*
X172800000Y-54550000D03*
X171150000Y-52900000D03*
X173966726Y-54066726D03*
X171633274Y-51733274D03*
%TD*%
D15*
%TO.C,J1*%
X193000004Y-144949986D03*
X196999996Y-144949986D03*
%TD*%
D16*
%TO.C,J3*%
X218300000Y-129700000D03*
X218300000Y-132240000D03*
X218300000Y-134780000D03*
X218300000Y-137320000D03*
X218300000Y-139860000D03*
X218300000Y-142400000D03*
%TD*%
D13*
%TO.C,H1*%
X173966726Y-146033274D03*
X172800000Y-148850000D03*
X171633274Y-148366726D03*
X172800000Y-145550000D03*
X174450000Y-147200000D03*
X171150000Y-147200000D03*
X173966726Y-148366726D03*
X171633274Y-146033274D03*
D14*
X172800000Y-147200000D03*
%TD*%
D17*
%TO.C,J6*%
X188234800Y-89149000D03*
X188934800Y-89149000D03*
X189634800Y-89149000D03*
X190334800Y-89149000D03*
X191034800Y-89149000D03*
X191734800Y-89149000D03*
X192434800Y-89149000D03*
X193134800Y-89149000D03*
X193834800Y-89149000D03*
X194534800Y-89149000D03*
X195234800Y-89149000D03*
X195934800Y-89149000D03*
%TD*%
M02*
