M48
; DRILL file {KiCad 6.0.6-3a73a75311~116~ubuntu20.04.1} date 2022年08月17日 星期三 13时20分06秒
; FORMAT={-:-/ absolute / inch / decimal}
; #@! TF.CreationDate,2022-08-17T13:20:06+08:00
; #@! TF.GenerationSoftware,Kicad,Pcbnew,6.0.6-3a73a75311~116~ubuntu20.04.1
; #@! TF.FileFunction,MixedPlating,1,2
FMAT,2
INCH
; #@! TA.AperFunction,Plated,PTH,ViaDrill
T1C0.0120
; #@! TA.AperFunction,Plated,PTH,ComponentDrill
T2C0.0157
; #@! TA.AperFunction,Plated,PTH,ComponentDrill
T3C0.0400
; #@! TA.AperFunction,Plated,PTH,ComponentDrill
T4C0.0866
; #@! TA.AperFunction,NonPlated,NPTH,ComponentDrill
T5C0.0236
%
G90
G05
T1
X6.7344Y-3.4518
X6.7344Y-3.5698
X6.7354Y-3.7194
X6.7454Y-3.2898
X6.7472Y-3.8239
X6.7514Y-3.0628
X6.7604Y-4.1608
X6.7634Y-2.3258
X6.7634Y-5.6398
X6.7664Y-2.8038
X6.7684Y-4.0198
X6.7794Y-4.3418
X6.7874Y-5.4988
X6.7963Y-5.3944
X6.8184Y-3.7358
X6.8369Y-3.2381
X6.8584Y-5.2348
X6.8694Y-3.7368
X6.8784Y-2.2208
X6.8784Y-5.4758
X6.8964Y-5.6568
X6.9634Y-2.9678
X6.9654Y-2.8278
X6.9694Y-3.4578
X6.9704Y-2.0528
X6.9814Y-4.2658
X6.996Y-4.1188
X7.0114Y-5.2098
X7.0214Y-3.7508
X7.0223Y-3.9614
X7.0364Y-3.1188
X7.0692Y-3.3483
X7.0775Y-4.0491
X7.0944Y-5.5368
X7.0974Y-3.5288
X7.1014Y-4.0278
X7.1054Y-5.8648
X7.1064Y-4.6208
X7.1064Y-4.7088
X7.1074Y-4.8208
X7.1074Y-5.1768
X7.1084Y-5.0468
X7.1094Y-4.5258
X7.1094Y-4.9398
X7.1125Y-4.2341
X7.1164Y-5.3508
X7.1204Y-3.5728
X7.1213Y-3.2257
X7.1244Y-4.3778
X7.1496Y-5.275
X7.1594Y-4.2518
X7.1594Y-2.0357
X7.1764Y-2.9668
X7.1774Y-2.8208
X7.1854Y-4.2778
X7.1934Y-5.0738
X7.2074Y-5.1768
X7.2134Y-5.7378
X7.2149Y-3.2735
X7.2164Y-4.2868
X7.2464Y-5.6396
X7.2559Y-5.1712
X7.2684Y-3.6008
X7.2779Y-5.427
X7.2824Y-3.9988
X7.2924Y-5.7828
X7.2934Y-5.8228
X7.2974Y-3.4798
X7.2976Y-5.5294
X7.3054Y-4.2998
X7.3087Y-5.1702
X7.3094Y-5.4625
X7.3214Y-3.1658
X7.3228Y-5.5984
X7.3448Y-5.7892
X7.3534Y-4.7868
X7.3534Y-4.8978
X7.3594Y-4.3818
X7.3624Y-2.8148
X7.3632Y-5.5669
X7.3724Y-3.3995
X7.3724Y-5.4625
X7.4004Y-4.9678
X7.4074Y-4.3818
X7.4104Y-4.8388
X7.4114Y-3.6138
X7.4114Y-4.7008
X7.4188Y-2.9843
X7.4324Y-2.8668
X7.4344Y-3.8638
X7.4674Y-5.8168
X7.4684Y-3.0628
X7.4684Y-4.7908
X7.4714Y-4.9008
X7.4747Y-5.6003
X7.4904Y-2.8688
X7.4924Y-2.7378
X7.5062Y-5.4664
X7.5104Y-5.4178
X7.5154Y-3.1978
X7.5204Y-3.6068
X7.5304Y-2.8688
X7.5304Y-3.7218
X7.5494Y-3.6058
X7.5554Y-3.0628
X7.5684Y-2.8678
X7.5714Y-4.8348
X7.5734Y-5.6338
X7.6084Y-2.8688
X7.6264Y-3.0608
X7.6384Y-3.9148
X7.6404Y-5.7558
X7.644Y-5.4585
X7.6614Y-2.8648
X7.6637Y-5.4073
X7.6684Y-3.7038
X7.6755Y-5.8857
X7.6814Y-5.4498
X7.6864Y-3.6648
X7.6874Y-2.8688
X7.6894Y-3.1088
X7.6954Y-3.7028
X7.6984Y-3.2298
X7.7074Y-5.2278
X7.7114Y-5.4518
X7.7214Y-2.8598
X7.7254Y-4.5078
X7.7264Y-2.9438
X7.7274Y-5.7568
X7.7304Y-5.6088
X7.7314Y-5.2178
X7.7394Y-3.0708
X7.7424Y-3.4428
X7.7424Y-5.4703
X7.7474Y-2.8728
X7.7484Y-3.5268
X7.7484Y-3.6038
X7.7484Y-5.0698
X7.7544Y-3.6558
X7.7564Y-4.4838
X7.7564Y-4.5808
X7.7634Y-3.9168
X7.7764Y-5.2238
X7.7784Y-3.7128
X7.7804Y-3.2808
X7.7818Y-5.8759
X7.8174Y-4.3928
X7.8212Y-5.616
X7.8234Y-3.5728
X7.8334Y-3.9168
X7.8464Y-5.1298
X7.8487Y-5.8719
X7.8584Y-3.7008
X7.8634Y-5.0088
X7.8724Y-5.6968
X7.8763Y-5.4507
X7.8764Y-4.5238
X7.8774Y-4.3678
X7.8794Y-4.7108
X7.8833Y-4.4618
X7.8844Y-2.9618
X7.8894Y-3.6858
X7.8929Y-3.3754
X7.9004Y-2.9858
X7.9039Y-5.8562
X7.9074Y-4.3578
X7.9114Y-5.0878
X7.9174Y-4.3278
X7.9196Y-5.5609
X7.9204Y-3.0038
X7.9244Y-2.9728
X7.9334Y-4.5578
X7.9334Y-5.8148
X7.9353Y-5.8522
X7.9394Y-4.4418
X7.9464Y-3.9148
X7.9484Y-5.0088
X7.959Y-5.3837
X7.9604Y-4.7018
X7.9614Y-2.9928
X7.9674Y-3.6658
X7.9708Y-5.5136
X7.9774Y-3.4638
X7.9794Y-3.5698
X7.9814Y-2.9748
X7.9874Y-3.8408
X7.9914Y-5.8858
X8.0004Y-2.9978
X8.0042Y-5.2633
X8.0194Y-3.0188
X8.0204Y-3.1278
X8.0338Y-5.8837
X8.0377Y-5.7577
X8.0554Y-2.7748
X8.0731Y-5.1636
X8.081Y-5.8877
X8.0838Y-5.5018
X8.085Y-5.3719
X8.0889Y-5.6869
X8.0941Y-2.9568
X8.0999Y-5.2656
X8.1254Y-5.8878
X8.1334Y-3.2698
X8.1704Y-5.8758
X8.1716Y-5.368
X8.1909Y-5.3432
X8.2124Y-3.9448
X8.2124Y-4.0808
X8.2124Y-4.3428
X8.2154Y-5.8298
X8.2164Y-5.1078
X8.2188Y-3.6003
X8.2194Y-3.8068
X8.2255Y-5.3199
X8.2263Y-4.2459
X8.2298Y-5.2085
X8.2324Y-4.3778
X8.2346Y-5.2751
X8.2374Y-5.8758
X8.2394Y-3.7858
X8.2444Y-4.9418
X8.2621Y-3.6278
X8.2674Y-3.8388
X8.2724Y-4.4078
X8.2818Y-3.3444
X8.2844Y-3.6988
X8.2857Y-3.5333
X8.2889Y-4.3589
X8.2899Y-5.4818
X8.2924Y-4.7328
X8.3034Y-4.4978
X8.3084Y-3.8778
X8.3094Y-4.5398
X8.32Y-4.4664
X8.3224Y-4.6488
X8.3228Y-4.9093
X8.3251Y-3.4664
X8.3251Y-3.6668
X8.3302Y-5.1896
X8.3349Y-5.5018
X8.3448Y-3.616
X8.3645Y-3.1593
X8.3645Y-3.3916
X8.3645Y-3.5333
X8.3664Y-2.0098
X8.3714Y-4.5228
X8.3737Y-3.7451
X8.3904Y-5.4768
X8.3914Y-3.4644
X8.4024Y-4.7978
X8.4042Y-5.4231
X8.4124Y-3.8758
X8.4254Y-2.1938
X8.4275Y-3.7105
X8.4314Y-5.2458
X8.4344Y-4.9218
X8.4414Y-4.5318
X8.4448Y-4.3306
X8.4478Y-5.046
X8.4508Y-4.1691
X8.4747Y-3.6829
X8.4964Y-2.4318
X8.5094Y-4.6768
X8.5134Y-4.7798
X8.5154Y-4.1778
X8.5154Y-4.4568
X8.5184Y-4.5808
X8.5254Y-5.4718
X8.5424Y-4.8698
X8.5454Y-4.1378
X8.5494Y-3.5718
X8.5584Y-3.9738
X8.5744Y-3.2388
X8.5934Y-2.8678
X8.5994Y-4.5898
X8.6054Y-4.2858
X8.6082Y-4.3664
X8.6109Y-4.4369
X8.6214Y-3.6348
X8.6224Y-4.0598
X8.6284Y-3.8578
X8.6284Y-4.1588
T2
X6.7382Y-2.0827
X6.7382Y-5.7953
X6.7572Y-2.0367
X6.7572Y-2.1286
X6.7572Y-5.7493
X6.7572Y-5.8412
X6.8031Y-2.0177
X6.8031Y-2.1476
X6.8031Y-5.7303
X6.8031Y-5.8602
X6.8491Y-2.0367
X6.8491Y-2.1286
X6.8491Y-5.7493
X6.8491Y-5.8412
X6.8681Y-2.0827
X6.8681Y-5.7953
X8.4862Y-2.0827
X8.4862Y-5.7992
X8.5052Y-2.0367
X8.5052Y-2.1286
X8.5052Y-5.7533
X8.5052Y-5.8451
X8.5512Y-2.0177
X8.5512Y-2.1476
X8.5512Y-5.7343
X8.5512Y-5.8642
X8.5971Y-2.0367
X8.5971Y-2.1286
X8.5971Y-5.7533
X8.5971Y-5.8451
X8.6161Y-2.0827
X8.6161Y-5.7992
T3
X8.5945Y-5.1063
X8.5945Y-5.2063
X8.5945Y-5.3063
X8.5945Y-5.4063
X8.5945Y-5.5063
X8.5945Y-5.6063
T4
X6.8031Y-2.0827
X6.8031Y-5.7953
X8.5512Y-2.0827
X8.5512Y-5.7992
T5
X7.5984Y-5.7067
X7.7559Y-5.7067
T0
M30
