%TF.GenerationSoftware,KiCad,Pcbnew,6.0.6-3a73a75311~116~ubuntu20.04.1*%
%TF.CreationDate,2022-08-17T13:19:53+08:00*%
%TF.ProjectId,Maple_Eye_Alef_V12,4d61706c-655f-4457-9965-5f416c65665f,rev?*%
%TF.SameCoordinates,Original*%
%TF.FileFunction,Legend,Bot*%
%TF.FilePolarity,Positive*%
%FSLAX46Y46*%
G04 Gerber Fmt 4.6, Leading zero omitted, Abs format (unit mm)*
G04 Created by KiCad (PCBNEW 6.0.6-3a73a75311~116~ubuntu20.04.1) date 2022-08-17 13:19:53*
%MOMM*%
%LPD*%
G01*
G04 APERTURE LIST*
%ADD10C,0.015240*%
%ADD11C,0.000000*%
%TA.AperFunction,Profile*%
%ADD12C,0.150000*%
%TD*%
%ADD13C,0.254000*%
%ADD14C,0.150000*%
%TA.AperFunction,Profile*%
%ADD15C,0.100000*%
%TD*%
%ADD16C,0.120000*%
G04 APERTURE END LIST*
D10*
X193554446Y-57650480D02*
X193584926Y-57650480D01*
X194636486Y-59585960D02*
X196343366Y-59585960D01*
X192868646Y-60698480D02*
X193904966Y-60698480D01*
X191756126Y-60241280D02*
X192167606Y-60241280D01*
X194392646Y-61079480D02*
X194819366Y-61079480D01*
X191878046Y-59372600D02*
X193417286Y-59372600D01*
X193859246Y-57833360D02*
X194209766Y-57833360D01*
X193021046Y-58092440D02*
X195047966Y-58092440D01*
X192975326Y-58122920D02*
X195093686Y-58122920D01*
X193051526Y-57879080D02*
X193264886Y-57879080D01*
X191634206Y-59982200D02*
X196434806Y-59982200D01*
X192655286Y-58336280D02*
X195413726Y-58336280D01*
X195840446Y-60195560D02*
X196343366Y-60195560D01*
X191725646Y-60195560D02*
X192441926Y-60195560D01*
X195657566Y-60881360D02*
X195733766Y-60881360D01*
X192899126Y-60226040D02*
X195764246Y-60226040D01*
X192868646Y-60683240D02*
X193904966Y-60683240D01*
X191649446Y-60043160D02*
X196419566Y-60043160D01*
X192670526Y-58046720D02*
X192792446Y-58046720D01*
X192335246Y-58595360D02*
X195733766Y-58595360D01*
X192655286Y-58077200D02*
X192853406Y-58077200D01*
X194834606Y-57848600D02*
X195002246Y-57848600D01*
X194880326Y-57818120D02*
X195002246Y-57818120D01*
X191847566Y-60408920D02*
X192213326Y-60408920D01*
X193661126Y-59448800D02*
X194468846Y-59448800D01*
X195855686Y-60134600D02*
X196373846Y-60134600D01*
X194011646Y-57604760D02*
X194057366Y-57604760D01*
X195718526Y-60576560D02*
X196038566Y-60576560D01*
X194423126Y-61049000D02*
X194865086Y-61049000D01*
X191847566Y-60393680D02*
X192198086Y-60393680D01*
X193950686Y-57680960D02*
X194118326Y-57680960D01*
X192838166Y-60546080D02*
X193844006Y-60546080D01*
X191634206Y-59707880D02*
X196419566Y-59707880D01*
X192640046Y-58366760D02*
X195444206Y-58366760D01*
X192030446Y-58869680D02*
X196038566Y-58869680D01*
X193615406Y-59265920D02*
X194529806Y-59265920D01*
X191999966Y-60637520D02*
X192243806Y-60637520D01*
X193889726Y-57787640D02*
X194179286Y-57787640D01*
X192198086Y-60896600D02*
X192259046Y-60896600D01*
X195657566Y-60820400D02*
X195809966Y-60820400D01*
X192289526Y-58397240D02*
X195779486Y-58397240D01*
X192655286Y-58244840D02*
X195413726Y-58244840D01*
X191847566Y-59326880D02*
X193432526Y-59326880D01*
X193981166Y-57635240D02*
X194087846Y-57635240D01*
X194743166Y-57924800D02*
X195017486Y-57924800D01*
X192015206Y-60668000D02*
X192243806Y-60668000D01*
X194727926Y-59372600D02*
X196190966Y-59372600D01*
X193432526Y-57909560D02*
X194636486Y-57909560D01*
X191771366Y-59189720D02*
X196282406Y-59189720D01*
X191999966Y-58778240D02*
X196069046Y-58778240D01*
X191832326Y-60378440D02*
X192198086Y-60378440D01*
X195809966Y-60256520D02*
X196297646Y-60256520D01*
X194103086Y-60500360D02*
X195261326Y-60500360D01*
X194072606Y-60561320D02*
X195169886Y-60561320D01*
X192868646Y-60607040D02*
X193889726Y-60607040D01*
X192548606Y-60226040D02*
X192822926Y-60226040D01*
X191618966Y-59784080D02*
X196450046Y-59784080D01*
X192091406Y-59067800D02*
X195977606Y-59067800D01*
X193904966Y-57757160D02*
X194164046Y-57757160D01*
X192655286Y-58092440D02*
X192883886Y-58092440D01*
X191649446Y-59677400D02*
X196404326Y-59677400D01*
X192883886Y-60713720D02*
X193920206Y-60713720D01*
X192868646Y-60668000D02*
X193904966Y-60668000D01*
X193021046Y-58061960D02*
X195047966Y-58061960D01*
X193021046Y-60972800D02*
X193447766Y-60972800D01*
X194225006Y-60378440D02*
X195398486Y-60378440D01*
X194727926Y-59433560D02*
X196145246Y-59433560D01*
X195124166Y-58122920D02*
X195413726Y-58122920D01*
X191618966Y-59936480D02*
X196450046Y-59936480D01*
X194194526Y-60408920D02*
X195368006Y-60408920D01*
X192335246Y-58610600D02*
X195733766Y-58610600D01*
X194712686Y-59342120D02*
X196206206Y-59342120D01*
X191756126Y-60256520D02*
X192182846Y-60256520D01*
X194346926Y-57787640D02*
X194590766Y-57787640D01*
X195185126Y-58092440D02*
X195413726Y-58092440D01*
X194026886Y-60637520D02*
X195093686Y-60637520D01*
X194590766Y-60820400D02*
X195063206Y-60820400D01*
X192060926Y-60728960D02*
X192259046Y-60728960D01*
X192304766Y-58442960D02*
X195764246Y-58442960D01*
X195672806Y-60805160D02*
X195825206Y-60805160D01*
X191984726Y-60622280D02*
X192243806Y-60622280D01*
X192655286Y-58290560D02*
X195413726Y-58290560D01*
X192152366Y-60850880D02*
X192259046Y-60850880D01*
X194255486Y-60363200D02*
X194956526Y-60363200D01*
X194682206Y-59281160D02*
X196251926Y-59281160D01*
X191847566Y-59464040D02*
X193432526Y-59464040D01*
X194606006Y-60789920D02*
X195063206Y-60789920D01*
X194727926Y-59464040D02*
X196190966Y-59464040D01*
X193661126Y-59479280D02*
X194468846Y-59479280D01*
X192670526Y-60408920D02*
X193737326Y-60408920D01*
X194666966Y-59265920D02*
X196267166Y-59265920D01*
X194133566Y-60469880D02*
X195307046Y-60469880D01*
X192259046Y-60317480D02*
X192487646Y-60317480D01*
X193021046Y-58077200D02*
X195047966Y-58077200D01*
X194042126Y-60607040D02*
X195093686Y-60607040D01*
X195063206Y-60332720D02*
X195428966Y-60332720D01*
X194148806Y-60454640D02*
X195322286Y-60454640D01*
X191999966Y-60652760D02*
X192243806Y-60652760D01*
X195688046Y-60713720D02*
X195916646Y-60713720D01*
X193386806Y-61155680D02*
X193569686Y-61155680D01*
X193463006Y-57802880D02*
X193737326Y-57802880D01*
X192609566Y-58382000D02*
X195459446Y-58382000D01*
X192899126Y-60805160D02*
X193325846Y-60805160D01*
X191786606Y-59159240D02*
X196282406Y-59159240D01*
X195703286Y-60637520D02*
X195977606Y-60637520D01*
X195749006Y-60454640D02*
X196130006Y-60454640D01*
X191878046Y-59448800D02*
X193417286Y-59448800D01*
X193874486Y-57818120D02*
X194194526Y-57818120D01*
X192320006Y-60378440D02*
X192502886Y-60378440D01*
X192045686Y-58702040D02*
X192121886Y-58702040D01*
X191618966Y-59829800D02*
X196450046Y-59829800D01*
X191649446Y-60012680D02*
X196434806Y-60012680D01*
X194727926Y-59448800D02*
X196145246Y-59448800D01*
X193341086Y-60789920D02*
X193920206Y-60789920D01*
X193676366Y-59433560D02*
X194468846Y-59433560D01*
X193493486Y-57757160D02*
X193691606Y-57757160D01*
X191999966Y-58763000D02*
X196069046Y-58763000D01*
X192502886Y-60149840D02*
X195825206Y-60149840D01*
X195764246Y-60408920D02*
X196175726Y-60408920D01*
X192060926Y-58945880D02*
X196008086Y-58945880D01*
X195154646Y-60271760D02*
X195474686Y-60271760D01*
X192289526Y-60347960D02*
X192487646Y-60347960D01*
X192594326Y-60317480D02*
X192944846Y-60317480D01*
D11*
G36*
X201755090Y-58713152D02*
G01*
X201798270Y-58713152D01*
X201798270Y-58721788D01*
X201832814Y-58721788D01*
X201832814Y-58730424D01*
X201867358Y-58730424D01*
X201867358Y-58739060D01*
X201893266Y-58739060D01*
X201893266Y-58747696D01*
X201910538Y-58747696D01*
X201910538Y-58756332D01*
X201927810Y-58756332D01*
X201927810Y-58764968D01*
X201945082Y-58764968D01*
X201945082Y-58773604D01*
X201962354Y-58773604D01*
X201962354Y-58782240D01*
X201979626Y-58782240D01*
X201979626Y-58790876D01*
X201996898Y-58790876D01*
X201996898Y-58799512D01*
X202005534Y-58799512D01*
X202005534Y-58808148D01*
X202022806Y-58808148D01*
X202022806Y-58816784D01*
X202040078Y-58816784D01*
X202040078Y-58825420D01*
X202048714Y-58825420D01*
X202048714Y-58834056D01*
X202057350Y-58834056D01*
X202057350Y-58842692D01*
X202065986Y-58842692D01*
X202065986Y-58851328D01*
X202083258Y-58851328D01*
X202083258Y-58859964D01*
X202091894Y-58859964D01*
X202091894Y-58868600D01*
X202100530Y-58868600D01*
X202100530Y-58877236D01*
X202109166Y-58877236D01*
X202109166Y-58885872D01*
X202117802Y-58885872D01*
X202117802Y-58894508D01*
X202126438Y-58894508D01*
X202126438Y-58903144D01*
X202135074Y-58903144D01*
X202135074Y-58911780D01*
X202143710Y-58911780D01*
X202143710Y-58920416D01*
X202152346Y-58920416D01*
X202152346Y-58929052D01*
X202160982Y-58929052D01*
X202160982Y-58946324D01*
X202169618Y-58946324D01*
X202169618Y-58954960D01*
X202178254Y-58954960D01*
X202178254Y-58963596D01*
X202186890Y-58963596D01*
X202186890Y-58980868D01*
X202195526Y-58980868D01*
X202195526Y-58989504D01*
X202204162Y-58989504D01*
X202204162Y-59006776D01*
X202212798Y-59006776D01*
X202212798Y-59015412D01*
X202221434Y-59015412D01*
X202221434Y-59032684D01*
X202230070Y-59032684D01*
X202230070Y-59049956D01*
X202238706Y-59049956D01*
X202238706Y-59067228D01*
X202247342Y-59067228D01*
X202247342Y-59084500D01*
X202255978Y-59084500D01*
X202255978Y-59101772D01*
X202264614Y-59101772D01*
X202264614Y-59127680D01*
X202273250Y-59127680D01*
X202273250Y-59153588D01*
X202281886Y-59153588D01*
X202281886Y-59179496D01*
X202290522Y-59179496D01*
X202290522Y-59214040D01*
X202299158Y-59214040D01*
X202299158Y-59222676D01*
X202350974Y-59222676D01*
X202350974Y-59214040D01*
X202420062Y-59214040D01*
X202420062Y-59222676D01*
X202506422Y-59222676D01*
X202506422Y-59231312D01*
X202558238Y-59231312D01*
X202558238Y-59239948D01*
X202584146Y-59239948D01*
X202584146Y-59248584D01*
X202618690Y-59248584D01*
X202618690Y-59257220D01*
X202635962Y-59257220D01*
X202635962Y-59265856D01*
X202661870Y-59265856D01*
X202661870Y-59274492D01*
X202679142Y-59274492D01*
X202679142Y-59283128D01*
X202687778Y-59283128D01*
X202687778Y-59291764D01*
X202705050Y-59291764D01*
X202705050Y-59300400D01*
X202713686Y-59300400D01*
X202713686Y-59309036D01*
X202730958Y-59309036D01*
X202730958Y-59317672D01*
X202739594Y-59317672D01*
X202739594Y-59326308D01*
X202748230Y-59326308D01*
X202748230Y-59334944D01*
X202756866Y-59334944D01*
X202756866Y-59352216D01*
X202765502Y-59352216D01*
X202765502Y-59360852D01*
X202774138Y-59360852D01*
X202774138Y-59386760D01*
X202782774Y-59386760D01*
X202782774Y-59429940D01*
X202774138Y-59429940D01*
X202774138Y-59455848D01*
X202765502Y-59455848D01*
X202765502Y-59473120D01*
X202756866Y-59473120D01*
X202756866Y-59481756D01*
X202748230Y-59481756D01*
X202748230Y-59490392D01*
X202739594Y-59490392D01*
X202739594Y-59499028D01*
X202730958Y-59499028D01*
X202730958Y-59507664D01*
X202722322Y-59507664D01*
X202722322Y-59516300D01*
X202705050Y-59516300D01*
X202705050Y-59524936D01*
X202696414Y-59524936D01*
X202696414Y-59533572D01*
X202679142Y-59533572D01*
X202679142Y-59542208D01*
X202661870Y-59542208D01*
X202661870Y-59550844D01*
X202644598Y-59550844D01*
X202644598Y-59559480D01*
X202618690Y-59559480D01*
X202618690Y-59568116D01*
X202592782Y-59568116D01*
X202592782Y-59576752D01*
X202558238Y-59576752D01*
X202558238Y-59585388D01*
X202515058Y-59585388D01*
X202515058Y-59594024D01*
X202445970Y-59594024D01*
X202445970Y-59602660D01*
X202325066Y-59602660D01*
X202325066Y-59594024D01*
X202307794Y-59594024D01*
X202307794Y-59965372D01*
X202299158Y-59965372D01*
X202299158Y-60008552D01*
X202290522Y-60008552D01*
X202290522Y-60043096D01*
X202281886Y-60043096D01*
X202281886Y-60077640D01*
X202273250Y-60077640D01*
X202273250Y-60094912D01*
X202264614Y-60094912D01*
X202264614Y-60120820D01*
X202255978Y-60120820D01*
X202255978Y-60138092D01*
X202247342Y-60138092D01*
X202247342Y-60155364D01*
X202238706Y-60155364D01*
X202238706Y-60172636D01*
X202230070Y-60172636D01*
X202230070Y-60189908D01*
X202221434Y-60189908D01*
X202221434Y-60207180D01*
X202212798Y-60207180D01*
X202212798Y-60224452D01*
X202204162Y-60224452D01*
X202204162Y-60233088D01*
X202195526Y-60233088D01*
X202195526Y-60241724D01*
X202186890Y-60241724D01*
X202186890Y-60258996D01*
X202178254Y-60258996D01*
X202178254Y-60267632D01*
X202169618Y-60267632D01*
X202169618Y-60276268D01*
X202160982Y-60276268D01*
X202160982Y-60293540D01*
X202152346Y-60293540D01*
X202152346Y-60302176D01*
X202143710Y-60302176D01*
X202143710Y-60310812D01*
X202135074Y-60310812D01*
X202135074Y-60319448D01*
X202126438Y-60319448D01*
X202126438Y-60328084D01*
X202117802Y-60328084D01*
X202117802Y-60336720D01*
X202109166Y-60336720D01*
X202109166Y-60345356D01*
X202100530Y-60345356D01*
X202100530Y-60353992D01*
X202091894Y-60353992D01*
X202091894Y-60362628D01*
X202083258Y-60362628D01*
X202083258Y-60371264D01*
X202065986Y-60371264D01*
X202065986Y-60379900D01*
X202057350Y-60379900D01*
X202057350Y-60388536D01*
X202048714Y-60388536D01*
X202048714Y-60397172D01*
X202040078Y-60397172D01*
X202040078Y-60405808D01*
X202022806Y-60405808D01*
X202022806Y-60414444D01*
X202014170Y-60414444D01*
X202014170Y-60423080D01*
X201996898Y-60423080D01*
X201996898Y-60431716D01*
X201979626Y-60431716D01*
X201979626Y-60440352D01*
X201962354Y-60440352D01*
X201962354Y-60448988D01*
X201945082Y-60448988D01*
X201945082Y-60457624D01*
X201927810Y-60457624D01*
X201927810Y-60466260D01*
X201910538Y-60466260D01*
X201910538Y-60474896D01*
X201893266Y-60474896D01*
X201893266Y-60483532D01*
X201867358Y-60483532D01*
X201867358Y-60492168D01*
X201832814Y-60492168D01*
X201832814Y-60500804D01*
X201798270Y-60500804D01*
X201798270Y-60509440D01*
X201755090Y-60509440D01*
X201755090Y-60518076D01*
X201573734Y-60518076D01*
X201573734Y-60509440D01*
X201521918Y-60509440D01*
X201521918Y-60500804D01*
X201487374Y-60500804D01*
X201487374Y-60492168D01*
X201461466Y-60492168D01*
X201461466Y-60483532D01*
X201435558Y-60483532D01*
X201435558Y-60474896D01*
X201409650Y-60474896D01*
X201409650Y-60466260D01*
X201392378Y-60466260D01*
X201392378Y-60457624D01*
X201375106Y-60457624D01*
X201375106Y-60448988D01*
X201357834Y-60448988D01*
X201357834Y-60440352D01*
X201340562Y-60440352D01*
X201340562Y-60431716D01*
X201331926Y-60431716D01*
X201331926Y-60423080D01*
X201314654Y-60423080D01*
X201314654Y-60414444D01*
X201297382Y-60414444D01*
X201297382Y-60405808D01*
X201288746Y-60405808D01*
X201288746Y-60397172D01*
X201280110Y-60397172D01*
X201280110Y-60388536D01*
X201262838Y-60388536D01*
X201262838Y-60379900D01*
X201254202Y-60379900D01*
X201254202Y-60371264D01*
X201245566Y-60371264D01*
X201245566Y-60362628D01*
X201236930Y-60362628D01*
X201236930Y-60353992D01*
X201228294Y-60353992D01*
X201228294Y-60345356D01*
X201219658Y-60345356D01*
X201219658Y-60336720D01*
X201202386Y-60336720D01*
X201202386Y-60328084D01*
X201193750Y-60328084D01*
X201193750Y-60310812D01*
X201185114Y-60310812D01*
X201185114Y-60302176D01*
X201176478Y-60302176D01*
X201176478Y-60293540D01*
X201167842Y-60293540D01*
X201167842Y-60284904D01*
X201159206Y-60284904D01*
X201159206Y-60276268D01*
X201150570Y-60276268D01*
X201150570Y-60267632D01*
X201141934Y-60267632D01*
X201141934Y-60250360D01*
X201133298Y-60250360D01*
X201133298Y-60241724D01*
X201124662Y-60241724D01*
X201124662Y-60224452D01*
X201116026Y-60224452D01*
X201116026Y-60215816D01*
X201107390Y-60215816D01*
X201107390Y-60198544D01*
X201098754Y-60198544D01*
X201098754Y-60181272D01*
X201090118Y-60181272D01*
X201090118Y-60164000D01*
X201081482Y-60164000D01*
X201081482Y-60146728D01*
X201072846Y-60146728D01*
X201072846Y-60129456D01*
X201064210Y-60129456D01*
X201064210Y-60112184D01*
X201055574Y-60112184D01*
X201055574Y-60086276D01*
X201046938Y-60086276D01*
X201046938Y-60060368D01*
X201038302Y-60060368D01*
X201038302Y-60025824D01*
X201029666Y-60025824D01*
X201029666Y-59991280D01*
X201021030Y-59991280D01*
X201021030Y-59922192D01*
X201012394Y-59922192D01*
X201012394Y-59594024D01*
X200995122Y-59594024D01*
X200995122Y-59602660D01*
X200874218Y-59602660D01*
X200874218Y-59594024D01*
X200805130Y-59594024D01*
X200805130Y-59585388D01*
X200761950Y-59585388D01*
X200761950Y-59576752D01*
X200727406Y-59576752D01*
X200727406Y-59568116D01*
X200701498Y-59568116D01*
X200701498Y-59559480D01*
X200684226Y-59559480D01*
X200684226Y-59550844D01*
X200666954Y-59550844D01*
X200666954Y-59542208D01*
X200649682Y-59542208D01*
X200649682Y-59533572D01*
X200632410Y-59533572D01*
X200632410Y-59524936D01*
X200615138Y-59524936D01*
X200615138Y-59516300D01*
X200606502Y-59516300D01*
X200606502Y-59507664D01*
X200597866Y-59507664D01*
X200597866Y-59499028D01*
X200589230Y-59499028D01*
X200589230Y-59490392D01*
X200580594Y-59490392D01*
X200580594Y-59481756D01*
X200571958Y-59481756D01*
X200571958Y-59473120D01*
X200563322Y-59473120D01*
X200563322Y-59464484D01*
X200554686Y-59464484D01*
X200554686Y-59447212D01*
X200546050Y-59447212D01*
X200546050Y-59369488D01*
X200554686Y-59369488D01*
X200554686Y-59352216D01*
X200563322Y-59352216D01*
X200563322Y-59343580D01*
X200571958Y-59343580D01*
X200571958Y-59334944D01*
X200580594Y-59334944D01*
X200580594Y-59326308D01*
X200589230Y-59326308D01*
X200589230Y-59317672D01*
X200597866Y-59317672D01*
X200597866Y-59309036D01*
X200606502Y-59309036D01*
X200606502Y-59300400D01*
X200615138Y-59300400D01*
X200615138Y-59291764D01*
X200632410Y-59291764D01*
X200632410Y-59283128D01*
X200649682Y-59283128D01*
X200649682Y-59274492D01*
X200666954Y-59274492D01*
X200666954Y-59265856D01*
X200684226Y-59265856D01*
X200684226Y-59257220D01*
X200710134Y-59257220D01*
X200710134Y-59248584D01*
X200736042Y-59248584D01*
X200736042Y-59239948D01*
X200770586Y-59239948D01*
X200770586Y-59231312D01*
X200813766Y-59231312D01*
X200813766Y-59222676D01*
X200900126Y-59222676D01*
X200900126Y-59214040D01*
X200969214Y-59214040D01*
X200969214Y-59222676D01*
X201029666Y-59222676D01*
X201029666Y-59196768D01*
X201038302Y-59196768D01*
X201038302Y-59162224D01*
X201046938Y-59162224D01*
X201046938Y-59136316D01*
X201055574Y-59136316D01*
X201055574Y-59110408D01*
X201064210Y-59110408D01*
X201064210Y-59093136D01*
X201072846Y-59093136D01*
X201072846Y-59075864D01*
X201081482Y-59075864D01*
X201081482Y-59058592D01*
X201090118Y-59058592D01*
X201090118Y-59041320D01*
X201098754Y-59041320D01*
X201098754Y-59024048D01*
X201107390Y-59024048D01*
X201107390Y-59006776D01*
X201116026Y-59006776D01*
X201116026Y-58998140D01*
X201124662Y-58998140D01*
X201124662Y-58980868D01*
X201133298Y-58980868D01*
X201133298Y-58972232D01*
X201141934Y-58972232D01*
X201141934Y-58954960D01*
X201150570Y-58954960D01*
X201150570Y-58946324D01*
X201159206Y-58946324D01*
X201159206Y-58937688D01*
X201167842Y-58937688D01*
X201167842Y-58929052D01*
X201176478Y-58929052D01*
X201176478Y-58920416D01*
X201185114Y-58920416D01*
X201185114Y-58911780D01*
X201193750Y-58911780D01*
X201193750Y-58894508D01*
X201202386Y-58894508D01*
X201202386Y-58885872D01*
X201211022Y-58885872D01*
X201211022Y-58877236D01*
X201228294Y-58877236D01*
X201228294Y-58868600D01*
X201236930Y-58868600D01*
X201236930Y-58859964D01*
X201245566Y-58859964D01*
X201245566Y-58851328D01*
X201254202Y-58851328D01*
X201254202Y-58842692D01*
X201262838Y-58842692D01*
X201262838Y-58834056D01*
X201280110Y-58834056D01*
X201280110Y-58825420D01*
X201288746Y-58825420D01*
X201288746Y-58816784D01*
X201297382Y-58816784D01*
X201297382Y-58808148D01*
X201314654Y-58808148D01*
X201314654Y-58799512D01*
X201331926Y-58799512D01*
X201331926Y-58790876D01*
X201340562Y-58790876D01*
X201340562Y-58782240D01*
X201357834Y-58782240D01*
X201357834Y-58773604D01*
X201375106Y-58773604D01*
X201375106Y-58764968D01*
X201392378Y-58764968D01*
X201392378Y-58756332D01*
X201409650Y-58756332D01*
X201409650Y-58747696D01*
X201435558Y-58747696D01*
X201435558Y-58739060D01*
X201461466Y-58739060D01*
X201461466Y-58730424D01*
X201487374Y-58730424D01*
X201487374Y-58721788D01*
X201521918Y-58721788D01*
X201521918Y-58713152D01*
X201565098Y-58713152D01*
X201565098Y-58704516D01*
X201755090Y-58704516D01*
X201755090Y-58713152D01*
G37*
D10*
X192228566Y-60287000D02*
X192472406Y-60287000D01*
X193874486Y-57802880D02*
X194194526Y-57802880D01*
X194011646Y-60728960D02*
X195093686Y-60728960D01*
X191893286Y-59387840D02*
X193417286Y-59387840D01*
X195688046Y-60683240D02*
X195947126Y-60683240D01*
X195779486Y-60378440D02*
X196206206Y-60378440D01*
X195764246Y-60424160D02*
X196160486Y-60424160D01*
X193432526Y-57924800D02*
X194636486Y-57924800D01*
X191862806Y-60424160D02*
X192213326Y-60424160D01*
X191649446Y-60027920D02*
X196434806Y-60027920D01*
X191786606Y-59235440D02*
X196282406Y-59235440D01*
X191786606Y-60302240D02*
X192182846Y-60302240D01*
X195276566Y-58046720D02*
X195398486Y-58046720D01*
X192563846Y-60256520D02*
X192853406Y-60256520D01*
X192289526Y-58427720D02*
X195779486Y-58427720D01*
X192487646Y-60530840D02*
X192518126Y-60530840D01*
X195688046Y-60728960D02*
X195901406Y-60728960D01*
X193051526Y-57940040D02*
X193356326Y-57940040D01*
X191618966Y-59845040D02*
X196450046Y-59845040D01*
X195703286Y-60622280D02*
X195992846Y-60622280D01*
X193508726Y-57711440D02*
X193661126Y-57711440D01*
X194011646Y-60820400D02*
X194026886Y-60820400D01*
X195733766Y-60515600D02*
X196084286Y-60515600D01*
X195124166Y-60302240D02*
X195444206Y-60302240D01*
X193493486Y-57726680D02*
X193676366Y-57726680D01*
X191801846Y-59265920D02*
X193478246Y-59265920D01*
X192548606Y-60241280D02*
X192838166Y-60241280D01*
X191832326Y-59296400D02*
X193447766Y-59296400D01*
X192655286Y-58153400D02*
X195413726Y-58153400D01*
X192213326Y-60911840D02*
X192243806Y-60911840D01*
X191618966Y-59906000D02*
X196450046Y-59906000D01*
X195749006Y-60485120D02*
X196114766Y-60485120D01*
X192518126Y-60180320D02*
X195809966Y-60180320D01*
X192304766Y-58366760D02*
X192533366Y-58366760D01*
X195688046Y-60668000D02*
X195947126Y-60668000D01*
X191878046Y-60454640D02*
X192213326Y-60454640D01*
X193752566Y-60317480D02*
X194880326Y-60317480D01*
X191923766Y-59113520D02*
X196145246Y-59113520D01*
X195809966Y-60271760D02*
X196282406Y-60271760D01*
X192304766Y-58473440D02*
X195764246Y-58473440D01*
X191908526Y-59403080D02*
X193417286Y-59403080D01*
X195474686Y-60302240D02*
X195703286Y-60302240D01*
X194011646Y-60774680D02*
X195078446Y-60774680D01*
X193066766Y-61018520D02*
X193493486Y-61018520D01*
X195459446Y-60363200D02*
X195642326Y-60363200D01*
X195825206Y-60210800D02*
X196328126Y-60210800D01*
X193127726Y-61064240D02*
X193523966Y-61064240D01*
X191740886Y-59555480D02*
X193478246Y-59555480D01*
X193508726Y-57696200D02*
X193645886Y-57696200D01*
X192121886Y-60820400D02*
X192259046Y-60820400D01*
X191862806Y-60439400D02*
X192213326Y-60439400D01*
X194011646Y-60698480D02*
X195093686Y-60698480D01*
X194011646Y-60805160D02*
X194316446Y-60805160D01*
X192320006Y-58549640D02*
X195749006Y-58549640D01*
X193112486Y-61049000D02*
X193508726Y-61049000D01*
X195154646Y-58107680D02*
X195413726Y-58107680D01*
X194011646Y-60713720D02*
X195093686Y-60713720D01*
X191740886Y-60226040D02*
X192457166Y-60226040D01*
X195657566Y-58336280D02*
X195749006Y-58336280D01*
X193005806Y-58107680D02*
X195063206Y-58107680D01*
X194392646Y-57726680D02*
X194575526Y-57726680D01*
X194484086Y-57650480D02*
X194514566Y-57650480D01*
X192213326Y-60271760D02*
X192472406Y-60271760D01*
X194362166Y-57772400D02*
X194590766Y-57772400D01*
X194285966Y-57848600D02*
X194621246Y-57848600D01*
X192929606Y-60850880D02*
X193356326Y-60850880D01*
X194438366Y-57680960D02*
X194560286Y-57680960D01*
X192365726Y-60424160D02*
X192502886Y-60424160D01*
X192198086Y-60256520D02*
X192457166Y-60256520D01*
X192868646Y-60622280D02*
X193889726Y-60622280D01*
X192091406Y-58991600D02*
X195977606Y-58991600D01*
X191908526Y-59418320D02*
X193417286Y-59418320D01*
X193142966Y-60287000D02*
X194834606Y-60287000D01*
X195535646Y-58366760D02*
X195764246Y-58366760D01*
X192609566Y-60347960D02*
X193005806Y-60347960D01*
X193584926Y-59570720D02*
X194529806Y-59570720D01*
X193097246Y-60302240D02*
X194849846Y-60302240D01*
X195474686Y-58382000D02*
X195779486Y-58382000D01*
X194697446Y-59540240D02*
X196297646Y-59540240D01*
X191679926Y-59616440D02*
X196358606Y-59616440D01*
X193310606Y-61140440D02*
X193600166Y-61140440D01*
X194179286Y-60424160D02*
X195352766Y-60424160D01*
X192990566Y-60942320D02*
X193432526Y-60942320D01*
X192655286Y-58199120D02*
X195413726Y-58199120D01*
X192883886Y-60728960D02*
X193920206Y-60728960D01*
X193920206Y-57741920D02*
X194148806Y-57741920D01*
X191999966Y-58793480D02*
X196069046Y-58793480D01*
X192045686Y-60713720D02*
X192243806Y-60713720D01*
X195672806Y-60789920D02*
X195840446Y-60789920D01*
X192883886Y-60576560D02*
X193874486Y-60576560D01*
D11*
G36*
X201711910Y-57633652D02*
G01*
X201737818Y-57633652D01*
X201737818Y-57642288D01*
X201755090Y-57642288D01*
X201755090Y-57650924D01*
X201772362Y-57650924D01*
X201772362Y-57659560D01*
X201789634Y-57659560D01*
X201789634Y-57668196D01*
X201798270Y-57668196D01*
X201798270Y-57676832D01*
X201806906Y-57676832D01*
X201806906Y-57685468D01*
X201815542Y-57685468D01*
X201815542Y-57694104D01*
X201832814Y-57694104D01*
X201832814Y-57702740D01*
X201841450Y-57702740D01*
X201841450Y-57711376D01*
X201850086Y-57711376D01*
X201850086Y-57720012D01*
X201858722Y-57720012D01*
X201858722Y-57737284D01*
X201867358Y-57737284D01*
X201867358Y-57745920D01*
X201875994Y-57745920D01*
X201875994Y-57754556D01*
X201884630Y-57754556D01*
X201884630Y-57763192D01*
X201893266Y-57763192D01*
X201893266Y-57771828D01*
X201901902Y-57771828D01*
X201901902Y-57789100D01*
X201910538Y-57789100D01*
X201910538Y-57797736D01*
X201919174Y-57797736D01*
X201919174Y-57815008D01*
X201927810Y-57815008D01*
X201927810Y-57823644D01*
X201936446Y-57823644D01*
X201936446Y-57840916D01*
X201945082Y-57840916D01*
X201945082Y-57858188D01*
X201962354Y-57858188D01*
X201962354Y-57849552D01*
X201979626Y-57849552D01*
X201979626Y-57840916D01*
X201988262Y-57840916D01*
X201988262Y-57832280D01*
X202005534Y-57832280D01*
X202005534Y-57823644D01*
X202014170Y-57823644D01*
X202014170Y-57815008D01*
X202031442Y-57815008D01*
X202031442Y-57806372D01*
X202040078Y-57806372D01*
X202040078Y-57797736D01*
X202057350Y-57797736D01*
X202057350Y-57789100D01*
X202074622Y-57789100D01*
X202074622Y-57780464D01*
X202091894Y-57780464D01*
X202091894Y-57771828D01*
X202109166Y-57771828D01*
X202109166Y-57763192D01*
X202126438Y-57763192D01*
X202126438Y-57754556D01*
X202152346Y-57754556D01*
X202152346Y-57745920D01*
X202178254Y-57745920D01*
X202178254Y-57737284D01*
X202212798Y-57737284D01*
X202212798Y-57728648D01*
X202307794Y-57728648D01*
X202307794Y-57737284D01*
X202333702Y-57737284D01*
X202333702Y-57745920D01*
X202350974Y-57745920D01*
X202350974Y-57754556D01*
X202368246Y-57754556D01*
X202368246Y-57763192D01*
X202376882Y-57763192D01*
X202376882Y-57771828D01*
X202394154Y-57771828D01*
X202394154Y-57780464D01*
X202402790Y-57780464D01*
X202402790Y-57789100D01*
X202411426Y-57789100D01*
X202411426Y-57806372D01*
X202420062Y-57806372D01*
X202420062Y-57815008D01*
X202428698Y-57815008D01*
X202428698Y-57823644D01*
X202437334Y-57823644D01*
X202437334Y-57840916D01*
X202445970Y-57840916D01*
X202445970Y-57858188D01*
X202454606Y-57858188D01*
X202454606Y-57884096D01*
X202463242Y-57884096D01*
X202463242Y-57910004D01*
X202471878Y-57910004D01*
X202471878Y-57944548D01*
X202480514Y-57944548D01*
X202480514Y-57996364D01*
X202489150Y-57996364D01*
X202489150Y-58039544D01*
X202497786Y-58039544D01*
X202497786Y-58030908D01*
X202523694Y-58030908D01*
X202523694Y-58022272D01*
X202566874Y-58022272D01*
X202566874Y-58013636D01*
X202610054Y-58013636D01*
X202610054Y-58005000D01*
X202687778Y-58005000D01*
X202687778Y-57996364D01*
X202739594Y-57996364D01*
X202739594Y-58005000D01*
X202800046Y-58005000D01*
X202800046Y-58013636D01*
X202825954Y-58013636D01*
X202825954Y-58022272D01*
X202843226Y-58022272D01*
X202843226Y-58030908D01*
X202860498Y-58030908D01*
X202860498Y-58039544D01*
X202869134Y-58039544D01*
X202869134Y-58048180D01*
X202886406Y-58048180D01*
X202886406Y-58056816D01*
X202895042Y-58056816D01*
X202895042Y-58074088D01*
X202903678Y-58074088D01*
X202903678Y-58082724D01*
X202912314Y-58082724D01*
X202912314Y-58099996D01*
X202920950Y-58099996D01*
X202920950Y-58117268D01*
X202929586Y-58117268D01*
X202929586Y-58255444D01*
X202920950Y-58255444D01*
X202920950Y-58289988D01*
X202912314Y-58289988D01*
X202912314Y-58315896D01*
X202903678Y-58315896D01*
X202903678Y-58341804D01*
X202895042Y-58341804D01*
X202895042Y-58367712D01*
X202886406Y-58367712D01*
X202886406Y-58384984D01*
X202955494Y-58384984D01*
X202955494Y-58393620D01*
X203024582Y-58393620D01*
X203024582Y-58402256D01*
X203067762Y-58402256D01*
X203067762Y-58410892D01*
X203102306Y-58410892D01*
X203102306Y-58419528D01*
X203128214Y-58419528D01*
X203128214Y-58428164D01*
X203145486Y-58428164D01*
X203145486Y-58436800D01*
X203162758Y-58436800D01*
X203162758Y-58445436D01*
X203180030Y-58445436D01*
X203180030Y-58454072D01*
X203197302Y-58454072D01*
X203197302Y-58462708D01*
X203205938Y-58462708D01*
X203205938Y-58471344D01*
X203214574Y-58471344D01*
X203214574Y-58479980D01*
X203231846Y-58479980D01*
X203231846Y-58497252D01*
X203240482Y-58497252D01*
X203240482Y-58505888D01*
X203249118Y-58505888D01*
X203249118Y-58523160D01*
X203257754Y-58523160D01*
X203257754Y-58540432D01*
X203266390Y-58540432D01*
X203266390Y-58609520D01*
X203257754Y-58609520D01*
X203257754Y-58644064D01*
X203249118Y-58644064D01*
X203249118Y-58661336D01*
X203240482Y-58661336D01*
X203240482Y-58678608D01*
X203231846Y-58678608D01*
X203231846Y-58687244D01*
X203223210Y-58687244D01*
X203223210Y-58704516D01*
X203214574Y-58704516D01*
X203214574Y-58713152D01*
X203205938Y-58713152D01*
X203205938Y-58730424D01*
X203197302Y-58730424D01*
X203197302Y-58739060D01*
X203188666Y-58739060D01*
X203188666Y-58747696D01*
X203180030Y-58747696D01*
X203180030Y-58756332D01*
X203171394Y-58756332D01*
X203171394Y-58773604D01*
X203162758Y-58773604D01*
X203162758Y-58782240D01*
X203154122Y-58782240D01*
X203154122Y-58790876D01*
X203145486Y-58790876D01*
X203145486Y-58799512D01*
X203136850Y-58799512D01*
X203136850Y-58808148D01*
X203128214Y-58808148D01*
X203128214Y-58816784D01*
X203119578Y-58816784D01*
X203119578Y-58825420D01*
X203128214Y-58825420D01*
X203128214Y-58834056D01*
X203154122Y-58834056D01*
X203154122Y-58842692D01*
X203171394Y-58842692D01*
X203171394Y-58851328D01*
X203188666Y-58851328D01*
X203188666Y-58859964D01*
X203205938Y-58859964D01*
X203205938Y-58868600D01*
X203223210Y-58868600D01*
X203223210Y-58877236D01*
X203231846Y-58877236D01*
X203231846Y-58885872D01*
X203249118Y-58885872D01*
X203249118Y-58894508D01*
X203266390Y-58894508D01*
X203266390Y-58903144D01*
X203275026Y-58903144D01*
X203275026Y-58911780D01*
X203283662Y-58911780D01*
X203283662Y-58920416D01*
X203300934Y-58920416D01*
X203300934Y-58929052D01*
X203309570Y-58929052D01*
X203309570Y-58937688D01*
X203318206Y-58937688D01*
X203318206Y-58946324D01*
X203326842Y-58946324D01*
X203326842Y-58954960D01*
X203335478Y-58954960D01*
X203335478Y-58963596D01*
X203344114Y-58963596D01*
X203344114Y-58972232D01*
X203352750Y-58972232D01*
X203352750Y-58989504D01*
X203361386Y-58989504D01*
X203361386Y-58998140D01*
X203370022Y-58998140D01*
X203370022Y-59024048D01*
X203378658Y-59024048D01*
X203378658Y-59093136D01*
X203370022Y-59093136D01*
X203370022Y-59119044D01*
X203361386Y-59119044D01*
X203361386Y-59127680D01*
X203352750Y-59127680D01*
X203352750Y-59144952D01*
X203344114Y-59144952D01*
X203344114Y-59153588D01*
X203335478Y-59153588D01*
X203335478Y-59162224D01*
X203326842Y-59162224D01*
X203326842Y-59170860D01*
X203318206Y-59170860D01*
X203318206Y-59179496D01*
X203309570Y-59179496D01*
X203309570Y-59188132D01*
X203300934Y-59188132D01*
X203300934Y-59196768D01*
X203292298Y-59196768D01*
X203292298Y-59205404D01*
X203275026Y-59205404D01*
X203275026Y-59214040D01*
X203266390Y-59214040D01*
X203266390Y-59222676D01*
X203249118Y-59222676D01*
X203249118Y-59231312D01*
X203240482Y-59231312D01*
X203240482Y-59239948D01*
X203223210Y-59239948D01*
X203223210Y-59248584D01*
X203205938Y-59248584D01*
X203205938Y-59257220D01*
X203188666Y-59257220D01*
X203188666Y-59265856D01*
X203171394Y-59265856D01*
X203171394Y-59274492D01*
X203154122Y-59274492D01*
X203154122Y-59283128D01*
X203136850Y-59283128D01*
X203136850Y-59291764D01*
X203110942Y-59291764D01*
X203110942Y-59300400D01*
X203102306Y-59300400D01*
X203102306Y-59309036D01*
X203110942Y-59309036D01*
X203110942Y-59317672D01*
X203119578Y-59317672D01*
X203119578Y-59326308D01*
X203128214Y-59326308D01*
X203128214Y-59334944D01*
X203136850Y-59334944D01*
X203136850Y-59343580D01*
X203145486Y-59343580D01*
X203145486Y-59352216D01*
X203154122Y-59352216D01*
X203154122Y-59360852D01*
X203162758Y-59360852D01*
X203162758Y-59369488D01*
X203171394Y-59369488D01*
X203171394Y-59378124D01*
X203180030Y-59378124D01*
X203180030Y-59395396D01*
X203188666Y-59395396D01*
X203188666Y-59404032D01*
X203197302Y-59404032D01*
X203197302Y-59412668D01*
X203205938Y-59412668D01*
X203205938Y-59429940D01*
X203214574Y-59429940D01*
X203214574Y-59438576D01*
X203223210Y-59438576D01*
X203223210Y-59455848D01*
X203231846Y-59455848D01*
X203231846Y-59473120D01*
X203240482Y-59473120D01*
X203240482Y-59490392D01*
X203249118Y-59490392D01*
X203249118Y-59516300D01*
X203257754Y-59516300D01*
X203257754Y-59594024D01*
X203249118Y-59594024D01*
X203249118Y-59611296D01*
X203240482Y-59611296D01*
X203240482Y-59628568D01*
X203231846Y-59628568D01*
X203231846Y-59645840D01*
X203223210Y-59645840D01*
X203223210Y-59654476D01*
X203214574Y-59654476D01*
X203214574Y-59663112D01*
X203197302Y-59663112D01*
X203197302Y-59671748D01*
X203188666Y-59671748D01*
X203188666Y-59680384D01*
X203171394Y-59680384D01*
X203171394Y-59689020D01*
X203154122Y-59689020D01*
X203154122Y-59697656D01*
X203136850Y-59697656D01*
X203136850Y-59706292D01*
X203119578Y-59706292D01*
X203119578Y-59714928D01*
X203093670Y-59714928D01*
X203093670Y-59723564D01*
X203059126Y-59723564D01*
X203059126Y-59732200D01*
X203007310Y-59732200D01*
X203007310Y-59740836D01*
X202929586Y-59740836D01*
X202929586Y-59749472D01*
X202895042Y-59749472D01*
X202895042Y-59775380D01*
X202903678Y-59775380D01*
X202903678Y-59801288D01*
X202912314Y-59801288D01*
X202912314Y-59827196D01*
X202920950Y-59827196D01*
X202920950Y-59861740D01*
X202929586Y-59861740D01*
X202929586Y-59999916D01*
X202920950Y-59999916D01*
X202920950Y-60017188D01*
X202912314Y-60017188D01*
X202912314Y-60034460D01*
X202903678Y-60034460D01*
X202903678Y-60051732D01*
X202895042Y-60051732D01*
X202895042Y-60060368D01*
X202886406Y-60060368D01*
X202886406Y-60069004D01*
X202877770Y-60069004D01*
X202877770Y-60077640D01*
X202860498Y-60077640D01*
X202860498Y-60086276D01*
X202843226Y-60086276D01*
X202843226Y-60094912D01*
X202825954Y-60094912D01*
X202825954Y-60103548D01*
X202774138Y-60103548D01*
X202774138Y-60112184D01*
X202679142Y-60112184D01*
X202679142Y-60103548D01*
X202610054Y-60103548D01*
X202610054Y-60094912D01*
X202566874Y-60094912D01*
X202566874Y-60086276D01*
X202523694Y-60086276D01*
X202523694Y-61062144D01*
X201901902Y-61062144D01*
X201901902Y-60604436D01*
X201910538Y-60604436D01*
X201910538Y-60595800D01*
X201936446Y-60595800D01*
X201936446Y-60587164D01*
X201953718Y-60587164D01*
X201953718Y-60578528D01*
X201979626Y-60578528D01*
X201979626Y-60569892D01*
X201996898Y-60569892D01*
X201996898Y-60561256D01*
X202014170Y-60561256D01*
X202014170Y-60552620D01*
X202031442Y-60552620D01*
X202031442Y-60543984D01*
X202040078Y-60543984D01*
X202040078Y-60535348D01*
X202057350Y-60535348D01*
X202057350Y-60526712D01*
X202074622Y-60526712D01*
X202074622Y-60518076D01*
X202083258Y-60518076D01*
X202083258Y-60509440D01*
X202100530Y-60509440D01*
X202100530Y-60500804D01*
X202109166Y-60500804D01*
X202109166Y-60492168D01*
X202126438Y-60492168D01*
X202126438Y-60483532D01*
X202135074Y-60483532D01*
X202135074Y-60474896D01*
X202143710Y-60474896D01*
X202143710Y-60466260D01*
X202152346Y-60466260D01*
X202152346Y-60457624D01*
X202169618Y-60457624D01*
X202169618Y-60448988D01*
X202178254Y-60448988D01*
X202178254Y-60440352D01*
X202186890Y-60440352D01*
X202186890Y-60431716D01*
X202195526Y-60431716D01*
X202195526Y-60423080D01*
X202204162Y-60423080D01*
X202204162Y-60414444D01*
X202212798Y-60414444D01*
X202212798Y-60405808D01*
X202221434Y-60405808D01*
X202221434Y-60397172D01*
X202230070Y-60397172D01*
X202230070Y-60388536D01*
X202238706Y-60388536D01*
X202238706Y-60379900D01*
X202247342Y-60379900D01*
X202247342Y-60362628D01*
X202255978Y-60362628D01*
X202255978Y-60353992D01*
X202264614Y-60353992D01*
X202264614Y-60345356D01*
X202273250Y-60345356D01*
X202273250Y-60336720D01*
X202281886Y-60336720D01*
X202281886Y-60319448D01*
X202290522Y-60319448D01*
X202290522Y-60310812D01*
X202299158Y-60310812D01*
X202299158Y-60293540D01*
X202307794Y-60293540D01*
X202307794Y-60284904D01*
X202316430Y-60284904D01*
X202316430Y-60267632D01*
X202325066Y-60267632D01*
X202325066Y-60258996D01*
X202333702Y-60258996D01*
X202333702Y-60241724D01*
X202342338Y-60241724D01*
X202342338Y-60224452D01*
X202350974Y-60224452D01*
X202350974Y-60207180D01*
X202359610Y-60207180D01*
X202359610Y-60189908D01*
X202368246Y-60189908D01*
X202368246Y-60164000D01*
X202376882Y-60164000D01*
X202376882Y-60146728D01*
X202385518Y-60146728D01*
X202385518Y-60120820D01*
X202394154Y-60120820D01*
X202394154Y-60094912D01*
X202402790Y-60094912D01*
X202402790Y-60060368D01*
X202411426Y-60060368D01*
X202411426Y-60025824D01*
X202420062Y-60025824D01*
X202420062Y-59974008D01*
X202428698Y-59974008D01*
X202428698Y-59723564D01*
X202463242Y-59723564D01*
X202463242Y-59714928D01*
X202532330Y-59714928D01*
X202532330Y-59706292D01*
X202584146Y-59706292D01*
X202584146Y-59697656D01*
X202618690Y-59697656D01*
X202618690Y-59689020D01*
X202644598Y-59689020D01*
X202644598Y-59680384D01*
X202670506Y-59680384D01*
X202670506Y-59671748D01*
X202687778Y-59671748D01*
X202687778Y-59663112D01*
X202713686Y-59663112D01*
X202713686Y-59654476D01*
X202730958Y-59654476D01*
X202730958Y-59645840D01*
X202748230Y-59645840D01*
X202748230Y-59637204D01*
X202756866Y-59637204D01*
X202756866Y-59628568D01*
X202774138Y-59628568D01*
X202774138Y-59619932D01*
X202782774Y-59619932D01*
X202782774Y-59611296D01*
X202800046Y-59611296D01*
X202800046Y-59602660D01*
X202808682Y-59602660D01*
X202808682Y-59594024D01*
X202817318Y-59594024D01*
X202817318Y-59585388D01*
X202825954Y-59585388D01*
X202825954Y-59576752D01*
X202834590Y-59576752D01*
X202834590Y-59568116D01*
X202843226Y-59568116D01*
X202843226Y-59559480D01*
X202851862Y-59559480D01*
X202851862Y-59542208D01*
X202860498Y-59542208D01*
X202860498Y-59533572D01*
X202869134Y-59533572D01*
X202869134Y-59516300D01*
X202877770Y-59516300D01*
X202877770Y-59499028D01*
X202886406Y-59499028D01*
X202886406Y-59481756D01*
X202895042Y-59481756D01*
X202895042Y-59447212D01*
X202903678Y-59447212D01*
X202903678Y-59369488D01*
X202895042Y-59369488D01*
X202895042Y-59334944D01*
X202886406Y-59334944D01*
X202886406Y-59317672D01*
X202877770Y-59317672D01*
X202877770Y-59300400D01*
X202869134Y-59300400D01*
X202869134Y-59283128D01*
X202860498Y-59283128D01*
X202860498Y-59274492D01*
X202851862Y-59274492D01*
X202851862Y-59257220D01*
X202843226Y-59257220D01*
X202843226Y-59248584D01*
X202834590Y-59248584D01*
X202834590Y-59239948D01*
X202825954Y-59239948D01*
X202825954Y-59231312D01*
X202817318Y-59231312D01*
X202817318Y-59222676D01*
X202808682Y-59222676D01*
X202808682Y-59214040D01*
X202791410Y-59214040D01*
X202791410Y-59205404D01*
X202782774Y-59205404D01*
X202782774Y-59196768D01*
X202765502Y-59196768D01*
X202765502Y-59188132D01*
X202756866Y-59188132D01*
X202756866Y-59179496D01*
X202739594Y-59179496D01*
X202739594Y-59170860D01*
X202722322Y-59170860D01*
X202722322Y-59162224D01*
X202705050Y-59162224D01*
X202705050Y-59153588D01*
X202687778Y-59153588D01*
X202687778Y-59144952D01*
X202661870Y-59144952D01*
X202661870Y-59136316D01*
X202635962Y-59136316D01*
X202635962Y-59127680D01*
X202610054Y-59127680D01*
X202610054Y-59119044D01*
X202575510Y-59119044D01*
X202575510Y-59110408D01*
X202523694Y-59110408D01*
X202523694Y-59101772D01*
X202437334Y-59101772D01*
X202437334Y-59093136D01*
X202385518Y-59093136D01*
X202385518Y-59075864D01*
X202376882Y-59075864D01*
X202376882Y-59058592D01*
X202368246Y-59058592D01*
X202368246Y-59032684D01*
X202359610Y-59032684D01*
X202359610Y-59015412D01*
X202350974Y-59015412D01*
X202350974Y-58998140D01*
X202342338Y-58998140D01*
X202342338Y-58980868D01*
X202333702Y-58980868D01*
X202333702Y-58972232D01*
X202325066Y-58972232D01*
X202325066Y-58954960D01*
X202316430Y-58954960D01*
X202316430Y-58937688D01*
X202307794Y-58937688D01*
X202307794Y-58929052D01*
X202299158Y-58929052D01*
X202299158Y-58911780D01*
X202290522Y-58911780D01*
X202290522Y-58903144D01*
X202281886Y-58903144D01*
X202281886Y-58885872D01*
X202273250Y-58885872D01*
X202273250Y-58877236D01*
X202264614Y-58877236D01*
X202264614Y-58868600D01*
X202255978Y-58868600D01*
X202255978Y-58859964D01*
X202247342Y-58859964D01*
X202247342Y-58842692D01*
X202238706Y-58842692D01*
X202238706Y-58834056D01*
X202230070Y-58834056D01*
X202230070Y-58825420D01*
X202221434Y-58825420D01*
X202221434Y-58816784D01*
X202212798Y-58816784D01*
X202212798Y-58808148D01*
X202204162Y-58808148D01*
X202204162Y-58799512D01*
X202195526Y-58799512D01*
X202195526Y-58790876D01*
X202186890Y-58790876D01*
X202186890Y-58782240D01*
X202178254Y-58782240D01*
X202178254Y-58773604D01*
X202169618Y-58773604D01*
X202169618Y-58764968D01*
X202152346Y-58764968D01*
X202152346Y-58756332D01*
X202143710Y-58756332D01*
X202143710Y-58747696D01*
X202135074Y-58747696D01*
X202135074Y-58739060D01*
X202126438Y-58739060D01*
X202126438Y-58730424D01*
X202109166Y-58730424D01*
X202109166Y-58721788D01*
X202100530Y-58721788D01*
X202100530Y-58713152D01*
X202083258Y-58713152D01*
X202083258Y-58704516D01*
X202074622Y-58704516D01*
X202074622Y-58695880D01*
X202057350Y-58695880D01*
X202057350Y-58687244D01*
X202048714Y-58687244D01*
X202048714Y-58678608D01*
X202031442Y-58678608D01*
X202031442Y-58669972D01*
X202014170Y-58669972D01*
X202014170Y-58661336D01*
X201996898Y-58661336D01*
X201996898Y-58652700D01*
X201979626Y-58652700D01*
X201979626Y-58644064D01*
X201953718Y-58644064D01*
X201953718Y-58635428D01*
X201936446Y-58635428D01*
X201936446Y-58626792D01*
X201910538Y-58626792D01*
X201910538Y-58618156D01*
X201884630Y-58618156D01*
X201884630Y-58609520D01*
X201858722Y-58609520D01*
X201858722Y-58600884D01*
X201815542Y-58600884D01*
X201815542Y-58592248D01*
X201763726Y-58592248D01*
X201763726Y-58583612D01*
X201556462Y-58583612D01*
X201556462Y-58592248D01*
X201504646Y-58592248D01*
X201504646Y-58600884D01*
X201470102Y-58600884D01*
X201470102Y-58609520D01*
X201435558Y-58609520D01*
X201435558Y-58618156D01*
X201409650Y-58618156D01*
X201409650Y-58626792D01*
X201383742Y-58626792D01*
X201383742Y-58635428D01*
X201366470Y-58635428D01*
X201366470Y-58644064D01*
X201349198Y-58644064D01*
X201349198Y-58652700D01*
X201331926Y-58652700D01*
X201331926Y-58661336D01*
X201314654Y-58661336D01*
X201314654Y-58669972D01*
X201297382Y-58669972D01*
X201297382Y-58678608D01*
X201280110Y-58678608D01*
X201280110Y-58687244D01*
X201262838Y-58687244D01*
X201262838Y-58695880D01*
X201254202Y-58695880D01*
X201254202Y-58704516D01*
X201236930Y-58704516D01*
X201236930Y-58713152D01*
X201228294Y-58713152D01*
X201228294Y-58721788D01*
X201211022Y-58721788D01*
X201211022Y-58730424D01*
X201202386Y-58730424D01*
X201202386Y-58739060D01*
X201185114Y-58739060D01*
X201185114Y-58747696D01*
X201176478Y-58747696D01*
X201176478Y-58756332D01*
X201167842Y-58756332D01*
X201167842Y-58764968D01*
X201159206Y-58764968D01*
X201159206Y-58773604D01*
X201150570Y-58773604D01*
X201150570Y-58782240D01*
X201141934Y-58782240D01*
X201141934Y-58790876D01*
X201133298Y-58790876D01*
X201133298Y-58799512D01*
X201124662Y-58799512D01*
X201124662Y-58808148D01*
X201116026Y-58808148D01*
X201116026Y-58816784D01*
X201107390Y-58816784D01*
X201107390Y-58825420D01*
X201098754Y-58825420D01*
X201098754Y-58834056D01*
X201090118Y-58834056D01*
X201090118Y-58842692D01*
X201081482Y-58842692D01*
X201081482Y-58851328D01*
X201072846Y-58851328D01*
X201072846Y-58859964D01*
X201064210Y-58859964D01*
X201064210Y-58868600D01*
X201055574Y-58868600D01*
X201055574Y-58885872D01*
X201046938Y-58885872D01*
X201046938Y-58894508D01*
X201038302Y-58894508D01*
X201038302Y-58903144D01*
X201029666Y-58903144D01*
X201029666Y-58920416D01*
X201021030Y-58920416D01*
X201021030Y-58929052D01*
X201012394Y-58929052D01*
X201012394Y-58946324D01*
X201003758Y-58946324D01*
X201003758Y-58963596D01*
X200995122Y-58963596D01*
X200995122Y-58972232D01*
X200986486Y-58972232D01*
X200986486Y-58989504D01*
X200977850Y-58989504D01*
X200977850Y-59006776D01*
X200969214Y-59006776D01*
X200969214Y-59024048D01*
X200960578Y-59024048D01*
X200960578Y-59041320D01*
X200951942Y-59041320D01*
X200951942Y-59067228D01*
X200943306Y-59067228D01*
X200943306Y-59084500D01*
X200934670Y-59084500D01*
X200934670Y-59093136D01*
X200882854Y-59093136D01*
X200882854Y-59101772D01*
X200796494Y-59101772D01*
X200796494Y-59110408D01*
X200753314Y-59110408D01*
X200753314Y-59119044D01*
X200710134Y-59119044D01*
X200710134Y-59127680D01*
X200684226Y-59127680D01*
X200684226Y-59136316D01*
X200658318Y-59136316D01*
X200658318Y-59144952D01*
X200641046Y-59144952D01*
X200641046Y-59153588D01*
X200615138Y-59153588D01*
X200615138Y-59162224D01*
X200597866Y-59162224D01*
X200597866Y-59170860D01*
X200580594Y-59170860D01*
X200580594Y-59179496D01*
X200571958Y-59179496D01*
X200571958Y-59188132D01*
X200554686Y-59188132D01*
X200554686Y-59196768D01*
X200537414Y-59196768D01*
X200537414Y-59205404D01*
X200528778Y-59205404D01*
X200528778Y-59214040D01*
X200520142Y-59214040D01*
X200520142Y-59222676D01*
X200511506Y-59222676D01*
X200511506Y-59231312D01*
X200502870Y-59231312D01*
X200502870Y-59239948D01*
X200494234Y-59239948D01*
X200494234Y-59248584D01*
X200485598Y-59248584D01*
X200485598Y-59257220D01*
X200476962Y-59257220D01*
X200476962Y-59265856D01*
X200468326Y-59265856D01*
X200468326Y-59274492D01*
X200459690Y-59274492D01*
X200459690Y-59291764D01*
X200451054Y-59291764D01*
X200451054Y-59309036D01*
X200442418Y-59309036D01*
X200442418Y-59326308D01*
X200433782Y-59326308D01*
X200433782Y-59352216D01*
X200425146Y-59352216D01*
X200425146Y-59464484D01*
X200433782Y-59464484D01*
X200433782Y-59490392D01*
X200442418Y-59490392D01*
X200442418Y-59516300D01*
X200451054Y-59516300D01*
X200451054Y-59524936D01*
X200459690Y-59524936D01*
X200459690Y-59542208D01*
X200468326Y-59542208D01*
X200468326Y-59550844D01*
X200476962Y-59550844D01*
X200476962Y-59559480D01*
X200485598Y-59559480D01*
X200485598Y-59568116D01*
X200494234Y-59568116D01*
X200494234Y-59585388D01*
X200511506Y-59585388D01*
X200511506Y-59594024D01*
X200520142Y-59594024D01*
X200520142Y-59602660D01*
X200528778Y-59602660D01*
X200528778Y-59611296D01*
X200537414Y-59611296D01*
X200537414Y-59619932D01*
X200554686Y-59619932D01*
X200554686Y-59628568D01*
X200563322Y-59628568D01*
X200563322Y-59637204D01*
X200580594Y-59637204D01*
X200580594Y-59645840D01*
X200597866Y-59645840D01*
X200597866Y-59654476D01*
X200615138Y-59654476D01*
X200615138Y-59663112D01*
X200632410Y-59663112D01*
X200632410Y-59671748D01*
X200658318Y-59671748D01*
X200658318Y-59680384D01*
X200684226Y-59680384D01*
X200684226Y-59689020D01*
X200710134Y-59689020D01*
X200710134Y-59697656D01*
X200744678Y-59697656D01*
X200744678Y-59706292D01*
X200787858Y-59706292D01*
X200787858Y-59714928D01*
X200865582Y-59714928D01*
X200865582Y-59723564D01*
X200891490Y-59723564D01*
X200891490Y-59930828D01*
X200900126Y-59930828D01*
X200900126Y-59999916D01*
X200908762Y-59999916D01*
X200908762Y-60043096D01*
X200917398Y-60043096D01*
X200917398Y-60077640D01*
X200926034Y-60077640D01*
X200926034Y-60112184D01*
X200934670Y-60112184D01*
X200934670Y-60129456D01*
X200943306Y-60129456D01*
X200943306Y-60155364D01*
X200951942Y-60155364D01*
X200951942Y-60181272D01*
X200960578Y-60181272D01*
X200960578Y-60198544D01*
X200969214Y-60198544D01*
X200969214Y-60215816D01*
X200977850Y-60215816D01*
X200977850Y-60233088D01*
X200986486Y-60233088D01*
X200986486Y-60250360D01*
X200995122Y-60250360D01*
X200995122Y-60258996D01*
X201003758Y-60258996D01*
X201003758Y-60276268D01*
X201012394Y-60276268D01*
X201012394Y-60293540D01*
X201021030Y-60293540D01*
X201021030Y-60302176D01*
X201029666Y-60302176D01*
X201029666Y-60319448D01*
X201038302Y-60319448D01*
X201038302Y-60328084D01*
X201046938Y-60328084D01*
X201046938Y-60336720D01*
X201055574Y-60336720D01*
X201055574Y-60353992D01*
X201064210Y-60353992D01*
X201064210Y-60362628D01*
X201072846Y-60362628D01*
X201072846Y-60371264D01*
X201081482Y-60371264D01*
X201081482Y-60379900D01*
X201090118Y-60379900D01*
X201090118Y-60388536D01*
X201098754Y-60388536D01*
X201098754Y-60397172D01*
X201107390Y-60397172D01*
X201107390Y-60405808D01*
X201116026Y-60405808D01*
X201116026Y-60414444D01*
X201124662Y-60414444D01*
X201124662Y-60423080D01*
X201133298Y-60423080D01*
X201133298Y-60431716D01*
X201141934Y-60431716D01*
X201141934Y-60440352D01*
X201150570Y-60440352D01*
X201150570Y-60448988D01*
X201159206Y-60448988D01*
X201159206Y-60457624D01*
X201167842Y-60457624D01*
X201167842Y-60466260D01*
X201176478Y-60466260D01*
X201176478Y-60474896D01*
X201193750Y-60474896D01*
X201193750Y-60483532D01*
X201202386Y-60483532D01*
X201202386Y-60492168D01*
X201211022Y-60492168D01*
X201211022Y-60500804D01*
X201228294Y-60500804D01*
X201228294Y-60509440D01*
X201236930Y-60509440D01*
X201236930Y-60518076D01*
X201254202Y-60518076D01*
X201254202Y-60526712D01*
X201262838Y-60526712D01*
X201262838Y-60535348D01*
X201280110Y-60535348D01*
X201280110Y-60543984D01*
X201297382Y-60543984D01*
X201297382Y-60552620D01*
X201314654Y-60552620D01*
X201314654Y-60561256D01*
X201331926Y-60561256D01*
X201331926Y-60569892D01*
X201349198Y-60569892D01*
X201349198Y-60578528D01*
X201366470Y-60578528D01*
X201366470Y-60587164D01*
X201392378Y-60587164D01*
X201392378Y-60595800D01*
X201409650Y-60595800D01*
X201409650Y-60604436D01*
X201418286Y-60604436D01*
X201418286Y-61062144D01*
X200796494Y-61062144D01*
X200796494Y-60086276D01*
X200753314Y-60086276D01*
X200753314Y-60094912D01*
X200710134Y-60094912D01*
X200710134Y-60103548D01*
X200641046Y-60103548D01*
X200641046Y-60112184D01*
X200546050Y-60112184D01*
X200546050Y-60103548D01*
X200502870Y-60103548D01*
X200502870Y-60094912D01*
X200476962Y-60094912D01*
X200476962Y-60086276D01*
X200459690Y-60086276D01*
X200459690Y-60077640D01*
X200451054Y-60077640D01*
X200451054Y-60069004D01*
X200442418Y-60069004D01*
X200442418Y-60060368D01*
X200433782Y-60060368D01*
X200433782Y-60051732D01*
X200425146Y-60051732D01*
X200425146Y-60043096D01*
X200416510Y-60043096D01*
X200416510Y-60025824D01*
X200407874Y-60025824D01*
X200407874Y-60008552D01*
X200399238Y-60008552D01*
X200399238Y-59982644D01*
X200390602Y-59982644D01*
X200390602Y-59887648D01*
X200399238Y-59887648D01*
X200399238Y-59844468D01*
X200407874Y-59844468D01*
X200407874Y-59809924D01*
X200416510Y-59809924D01*
X200416510Y-59784016D01*
X200425146Y-59784016D01*
X200425146Y-59758108D01*
X200433782Y-59758108D01*
X200433782Y-59740836D01*
X200442418Y-59740836D01*
X200442418Y-59732200D01*
X200356058Y-59732200D01*
X200356058Y-59723564D01*
X200295606Y-59723564D01*
X200295606Y-59714928D01*
X200252426Y-59714928D01*
X200252426Y-59706292D01*
X200217882Y-59706292D01*
X200217882Y-59697656D01*
X200191974Y-59697656D01*
X200191974Y-59689020D01*
X200174702Y-59689020D01*
X200174702Y-59680384D01*
X200157430Y-59680384D01*
X200157430Y-59671748D01*
X200140158Y-59671748D01*
X200140158Y-59663112D01*
X200122886Y-59663112D01*
X200122886Y-59654476D01*
X200114250Y-59654476D01*
X200114250Y-59645840D01*
X200105614Y-59645840D01*
X200105614Y-59637204D01*
X200096978Y-59637204D01*
X200096978Y-59628568D01*
X200088342Y-59628568D01*
X200088342Y-59619932D01*
X200079706Y-59619932D01*
X200079706Y-59611296D01*
X200071070Y-59611296D01*
X200071070Y-59594024D01*
X200062434Y-59594024D01*
X200062434Y-59550844D01*
X200053798Y-59550844D01*
X200053798Y-59533572D01*
X200062434Y-59533572D01*
X200062434Y-59490392D01*
X200071070Y-59490392D01*
X200071070Y-59464484D01*
X200079706Y-59464484D01*
X200079706Y-59447212D01*
X200088342Y-59447212D01*
X200088342Y-59429940D01*
X200096978Y-59429940D01*
X200096978Y-59421304D01*
X200105614Y-59421304D01*
X200105614Y-59404032D01*
X200114250Y-59404032D01*
X200114250Y-59395396D01*
X200122886Y-59395396D01*
X200122886Y-59386760D01*
X200131522Y-59386760D01*
X200131522Y-59369488D01*
X200140158Y-59369488D01*
X200140158Y-59360852D01*
X200148794Y-59360852D01*
X200148794Y-59352216D01*
X200157430Y-59352216D01*
X200157430Y-59343580D01*
X200166066Y-59343580D01*
X200166066Y-59334944D01*
X200174702Y-59334944D01*
X200174702Y-59326308D01*
X200183338Y-59326308D01*
X200183338Y-59317672D01*
X200191974Y-59317672D01*
X200191974Y-59309036D01*
X200200610Y-59309036D01*
X200200610Y-59300400D01*
X200209246Y-59300400D01*
X200209246Y-59291764D01*
X200191974Y-59291764D01*
X200191974Y-59283128D01*
X200174702Y-59283128D01*
X200174702Y-59274492D01*
X200148794Y-59274492D01*
X200148794Y-59265856D01*
X200131522Y-59265856D01*
X200131522Y-59257220D01*
X200114250Y-59257220D01*
X200114250Y-59248584D01*
X200096978Y-59248584D01*
X200096978Y-59239948D01*
X200088342Y-59239948D01*
X200088342Y-59231312D01*
X200071070Y-59231312D01*
X200071070Y-59222676D01*
X200053798Y-59222676D01*
X200053798Y-59214040D01*
X200045162Y-59214040D01*
X200045162Y-59205404D01*
X200036526Y-59205404D01*
X200036526Y-59196768D01*
X200019254Y-59196768D01*
X200019254Y-59188132D01*
X200010618Y-59188132D01*
X200010618Y-59179496D01*
X200001982Y-59179496D01*
X200001982Y-59170860D01*
X199993346Y-59170860D01*
X199993346Y-59162224D01*
X199984710Y-59162224D01*
X199984710Y-59153588D01*
X199976074Y-59153588D01*
X199976074Y-59144952D01*
X199967438Y-59144952D01*
X199967438Y-59127680D01*
X199958802Y-59127680D01*
X199958802Y-59119044D01*
X199950166Y-59119044D01*
X199950166Y-59093136D01*
X199941530Y-59093136D01*
X199941530Y-59024048D01*
X199950166Y-59024048D01*
X199950166Y-59006776D01*
X199958802Y-59006776D01*
X199958802Y-58989504D01*
X199967438Y-58989504D01*
X199967438Y-58972232D01*
X199976074Y-58972232D01*
X199976074Y-58963596D01*
X199984710Y-58963596D01*
X199984710Y-58954960D01*
X199993346Y-58954960D01*
X199993346Y-58946324D01*
X200001982Y-58946324D01*
X200001982Y-58937688D01*
X200010618Y-58937688D01*
X200010618Y-58929052D01*
X200019254Y-58929052D01*
X200019254Y-58920416D01*
X200036526Y-58920416D01*
X200036526Y-58911780D01*
X200045162Y-58911780D01*
X200045162Y-58903144D01*
X200062434Y-58903144D01*
X200062434Y-58894508D01*
X200071070Y-58894508D01*
X200071070Y-58885872D01*
X200088342Y-58885872D01*
X200088342Y-58877236D01*
X200105614Y-58877236D01*
X200105614Y-58868600D01*
X200122886Y-58868600D01*
X200122886Y-58859964D01*
X200140158Y-58859964D01*
X200140158Y-58851328D01*
X200157430Y-58851328D01*
X200157430Y-58842692D01*
X200174702Y-58842692D01*
X200174702Y-58834056D01*
X200191974Y-58834056D01*
X200191974Y-58825420D01*
X200217882Y-58825420D01*
X200217882Y-58808148D01*
X200209246Y-58808148D01*
X200209246Y-58799512D01*
X200200610Y-58799512D01*
X200200610Y-58790876D01*
X200191974Y-58790876D01*
X200191974Y-58782240D01*
X200183338Y-58782240D01*
X200183338Y-58773604D01*
X200174702Y-58773604D01*
X200174702Y-58764968D01*
X200166066Y-58764968D01*
X200166066Y-58747696D01*
X200157430Y-58747696D01*
X200157430Y-58739060D01*
X200148794Y-58739060D01*
X200148794Y-58730424D01*
X200140158Y-58730424D01*
X200140158Y-58721788D01*
X200131522Y-58721788D01*
X200131522Y-58713152D01*
X200122886Y-58713152D01*
X200122886Y-58695880D01*
X200114250Y-58695880D01*
X200114250Y-58687244D01*
X200105614Y-58687244D01*
X200105614Y-58669972D01*
X200096978Y-58669972D01*
X200096978Y-58652700D01*
X200088342Y-58652700D01*
X200088342Y-58635428D01*
X200079706Y-58635428D01*
X200079706Y-58618156D01*
X200071070Y-58618156D01*
X200071070Y-58574976D01*
X200062434Y-58574976D01*
X200062434Y-58549068D01*
X200071070Y-58549068D01*
X200071070Y-58514524D01*
X200079706Y-58514524D01*
X200079706Y-58497252D01*
X200088342Y-58497252D01*
X200088342Y-58479980D01*
X200096978Y-58479980D01*
X200096978Y-58471344D01*
X200105614Y-58471344D01*
X200105614Y-58462708D01*
X200114250Y-58462708D01*
X200114250Y-58454072D01*
X200122886Y-58454072D01*
X200122886Y-58445436D01*
X200140158Y-58445436D01*
X200140158Y-58436800D01*
X200148794Y-58436800D01*
X200148794Y-58428164D01*
X200166066Y-58428164D01*
X200166066Y-58419528D01*
X200183338Y-58419528D01*
X200183338Y-58410892D01*
X200209246Y-58410892D01*
X200209246Y-58402256D01*
X200235154Y-58402256D01*
X200235154Y-58393620D01*
X200278334Y-58393620D01*
X200278334Y-58384984D01*
X200321514Y-58384984D01*
X200321514Y-58376348D01*
X200407874Y-58376348D01*
X200407874Y-58367712D01*
X200433782Y-58367712D01*
X200433782Y-58359076D01*
X200425146Y-58359076D01*
X200425146Y-58333168D01*
X200416510Y-58333168D01*
X200416510Y-58307260D01*
X200407874Y-58307260D01*
X200407874Y-58272716D01*
X200399238Y-58272716D01*
X200399238Y-58229536D01*
X200390602Y-58229536D01*
X200390602Y-58143176D01*
X200399238Y-58143176D01*
X200399238Y-58108632D01*
X200407874Y-58108632D01*
X200407874Y-58091360D01*
X200416510Y-58091360D01*
X200416510Y-58074088D01*
X200425146Y-58074088D01*
X200425146Y-58065452D01*
X200433782Y-58065452D01*
X200433782Y-58056816D01*
X200442418Y-58056816D01*
X200442418Y-58048180D01*
X200451054Y-58048180D01*
X200451054Y-58039544D01*
X200459690Y-58039544D01*
X200459690Y-58030908D01*
X200476962Y-58030908D01*
X200476962Y-58022272D01*
X200494234Y-58022272D01*
X200494234Y-58013636D01*
X200520142Y-58013636D01*
X200520142Y-58005000D01*
X200580594Y-58005000D01*
X200580594Y-57996364D01*
X200649682Y-57996364D01*
X200649682Y-58005000D01*
X200718770Y-58005000D01*
X200718770Y-58013636D01*
X200761950Y-58013636D01*
X200761950Y-58022272D01*
X200796494Y-58022272D01*
X200796494Y-58030908D01*
X200831038Y-58030908D01*
X200831038Y-58039544D01*
X200848310Y-58039544D01*
X200848310Y-58030908D01*
X200856946Y-58030908D01*
X200856946Y-57961820D01*
X200865582Y-57961820D01*
X200865582Y-57918640D01*
X200874218Y-57918640D01*
X200874218Y-57892732D01*
X200882854Y-57892732D01*
X200882854Y-57866824D01*
X200891490Y-57866824D01*
X200891490Y-57849552D01*
X200900126Y-57849552D01*
X200900126Y-57832280D01*
X200908762Y-57832280D01*
X200908762Y-57815008D01*
X200917398Y-57815008D01*
X200917398Y-57806372D01*
X200926034Y-57806372D01*
X200926034Y-57789100D01*
X200934670Y-57789100D01*
X200934670Y-57780464D01*
X200943306Y-57780464D01*
X200943306Y-57771828D01*
X200951942Y-57771828D01*
X200951942Y-57763192D01*
X200969214Y-57763192D01*
X200969214Y-57754556D01*
X200977850Y-57754556D01*
X200977850Y-57745920D01*
X200995122Y-57745920D01*
X200995122Y-57737284D01*
X201012394Y-57737284D01*
X201012394Y-57728648D01*
X201046938Y-57728648D01*
X201046938Y-57720012D01*
X201116026Y-57720012D01*
X201116026Y-57728648D01*
X201159206Y-57728648D01*
X201159206Y-57737284D01*
X201185114Y-57737284D01*
X201185114Y-57745920D01*
X201211022Y-57745920D01*
X201211022Y-57754556D01*
X201228294Y-57754556D01*
X201228294Y-57763192D01*
X201245566Y-57763192D01*
X201245566Y-57771828D01*
X201262838Y-57771828D01*
X201262838Y-57780464D01*
X201280110Y-57780464D01*
X201280110Y-57789100D01*
X201297382Y-57789100D01*
X201297382Y-57797736D01*
X201306018Y-57797736D01*
X201306018Y-57806372D01*
X201323290Y-57806372D01*
X201323290Y-57815008D01*
X201340562Y-57815008D01*
X201340562Y-57823644D01*
X201349198Y-57823644D01*
X201349198Y-57832280D01*
X201357834Y-57832280D01*
X201357834Y-57840916D01*
X201375106Y-57840916D01*
X201375106Y-57849552D01*
X201383742Y-57849552D01*
X201383742Y-57832280D01*
X201392378Y-57832280D01*
X201392378Y-57823644D01*
X201401014Y-57823644D01*
X201401014Y-57806372D01*
X201409650Y-57806372D01*
X201409650Y-57797736D01*
X201418286Y-57797736D01*
X201418286Y-57780464D01*
X201426922Y-57780464D01*
X201426922Y-57771828D01*
X201435558Y-57771828D01*
X201435558Y-57754556D01*
X201444194Y-57754556D01*
X201444194Y-57745920D01*
X201452830Y-57745920D01*
X201452830Y-57737284D01*
X201461466Y-57737284D01*
X201461466Y-57728648D01*
X201470102Y-57728648D01*
X201470102Y-57720012D01*
X201478738Y-57720012D01*
X201478738Y-57711376D01*
X201487374Y-57711376D01*
X201487374Y-57702740D01*
X201496010Y-57702740D01*
X201496010Y-57694104D01*
X201504646Y-57694104D01*
X201504646Y-57685468D01*
X201513282Y-57685468D01*
X201513282Y-57676832D01*
X201530554Y-57676832D01*
X201530554Y-57668196D01*
X201539190Y-57668196D01*
X201539190Y-57659560D01*
X201556462Y-57659560D01*
X201556462Y-57650924D01*
X201565098Y-57650924D01*
X201565098Y-57642288D01*
X201591006Y-57642288D01*
X201591006Y-57633652D01*
X201616914Y-57633652D01*
X201616914Y-57625016D01*
X201711910Y-57625016D01*
X201711910Y-57633652D01*
G37*
D10*
X194514566Y-60927080D02*
X194987006Y-60927080D01*
X191771366Y-60271760D02*
X192182846Y-60271760D01*
X194331686Y-61140440D02*
X194682206Y-61140440D01*
X195093686Y-60317480D02*
X195444206Y-60317480D01*
X191893286Y-60469880D02*
X192213326Y-60469880D01*
X191618966Y-59875520D02*
X196450046Y-59875520D01*
X194316446Y-60332720D02*
X194910806Y-60332720D01*
X193965926Y-57665720D02*
X194103086Y-57665720D01*
X193493486Y-57741920D02*
X193691606Y-57741920D01*
X191969486Y-60607040D02*
X192243806Y-60607040D01*
X192655286Y-58214360D02*
X195413726Y-58214360D01*
X193036286Y-57985760D02*
X195032726Y-57985760D01*
X193523966Y-57665720D02*
X193615406Y-57665720D01*
X193630646Y-59281160D02*
X194514566Y-59281160D01*
X194011646Y-60744200D02*
X195078446Y-60744200D01*
X191618966Y-59921240D02*
X196450046Y-59921240D01*
X191908526Y-59433560D02*
X193417286Y-59433560D01*
X191679926Y-59631680D02*
X196373846Y-59631680D01*
X192655286Y-58260080D02*
X195413726Y-58260080D01*
X192411446Y-60469880D02*
X192518126Y-60469880D01*
X195489926Y-60256520D02*
X195733766Y-60256520D01*
X192335246Y-58564880D02*
X195733766Y-58564880D01*
X194453606Y-57665720D02*
X194545046Y-57665720D01*
X193935446Y-57696200D02*
X194133566Y-57696200D01*
X195444206Y-60530840D02*
X195474686Y-60530840D01*
X191664686Y-60088880D02*
X196404326Y-60088880D01*
X192975326Y-60927080D02*
X193417286Y-60927080D01*
X193478246Y-57787640D02*
X193722086Y-57787640D01*
X193082006Y-57802880D02*
X193173446Y-57802880D01*
X194499326Y-60957560D02*
X194971766Y-60957560D01*
X192960086Y-60911840D02*
X193402046Y-60911840D01*
X195779486Y-60347960D02*
X196221446Y-60347960D01*
X192655286Y-58275320D02*
X195413726Y-58275320D01*
X193463006Y-57818120D02*
X193752566Y-57818120D01*
X191710406Y-60165080D02*
X192441926Y-60165080D01*
X194026886Y-60668000D02*
X195093686Y-60668000D01*
X194087846Y-60515600D02*
X195246086Y-60515600D01*
X194773646Y-57894320D02*
X195017486Y-57894320D01*
X191954246Y-60576560D02*
X192228566Y-60576560D01*
X193661126Y-59372600D02*
X194468846Y-59372600D01*
X192091406Y-60774680D02*
X192259046Y-60774680D01*
X193447766Y-57863840D02*
X194621246Y-57863840D01*
X191634206Y-59723120D02*
X196419566Y-59723120D01*
X193021046Y-60347960D02*
X193645886Y-60347960D01*
X192182846Y-60881360D02*
X192259046Y-60881360D01*
X192883886Y-60759440D02*
X193920206Y-60759440D01*
X192396206Y-60454640D02*
X192518126Y-60454640D01*
X191923766Y-60530840D02*
X192228566Y-60530840D01*
X192091406Y-59052560D02*
X195977606Y-59052560D01*
X191618966Y-59860280D02*
X196450046Y-59860280D01*
X195657566Y-60835640D02*
X195794726Y-60835640D01*
X195444206Y-60500360D02*
X195520406Y-60500360D01*
X192015206Y-58823960D02*
X196053806Y-58823960D01*
X192533366Y-60195560D02*
X195794726Y-60195560D01*
X191634206Y-59738360D02*
X196434806Y-59738360D01*
X194011646Y-60789920D02*
X194499326Y-60789920D01*
X194560286Y-60866120D02*
X195032726Y-60866120D01*
X194727926Y-59357360D02*
X196190966Y-59357360D01*
X192685766Y-58031480D02*
X192761966Y-58031480D01*
X192701006Y-60439400D02*
X193767806Y-60439400D01*
X195657566Y-60866120D02*
X195749006Y-60866120D01*
X193051526Y-57909560D02*
X193310606Y-57909560D01*
X192060926Y-60744200D02*
X192259046Y-60744200D01*
X194164046Y-60439400D02*
X195337526Y-60439400D01*
X195809966Y-60287000D02*
X196267166Y-60287000D01*
X193036286Y-58016240D02*
X195032726Y-58016240D01*
X195779486Y-60363200D02*
X196206206Y-60363200D01*
X193432526Y-57894320D02*
X194636486Y-57894320D01*
X194590766Y-60805160D02*
X195063206Y-60805160D01*
X193005806Y-60957560D02*
X193432526Y-60957560D01*
X194453606Y-61018520D02*
X194910806Y-61018520D01*
X194438366Y-61033760D02*
X194880326Y-61033760D01*
X192655286Y-58321040D02*
X195413726Y-58321040D01*
X193036286Y-58031480D02*
X195032726Y-58031480D01*
X192533366Y-60210800D02*
X195779486Y-60210800D01*
X192655286Y-58168640D02*
X195413726Y-58168640D01*
X194057366Y-60576560D02*
X195139406Y-60576560D01*
X192655286Y-58183880D02*
X195413726Y-58183880D01*
X194011646Y-60683240D02*
X195093686Y-60683240D01*
X192335246Y-60393680D02*
X192502886Y-60393680D01*
X191695166Y-60134600D02*
X192426686Y-60134600D01*
X193508726Y-57680960D02*
X193630646Y-57680960D01*
X192289526Y-58412480D02*
X195779486Y-58412480D01*
X195764246Y-60393680D02*
X196190966Y-60393680D01*
X193844006Y-57848600D02*
X194225006Y-57848600D01*
X194331686Y-57802880D02*
X194590766Y-57802880D01*
X193661126Y-59342120D02*
X194484086Y-59342120D01*
X195459446Y-60393680D02*
X195627086Y-60393680D01*
X193051526Y-57863840D02*
X193249646Y-57863840D01*
X192320006Y-58534400D02*
X195749006Y-58534400D01*
X193996406Y-57620000D02*
X194072606Y-57620000D01*
X195825206Y-60241280D02*
X196312886Y-60241280D01*
X194377406Y-61094720D02*
X194788886Y-61094720D01*
X194407886Y-57711440D02*
X194560286Y-57711440D01*
X195657566Y-60896600D02*
X195718526Y-60896600D01*
X192868646Y-60637520D02*
X193889726Y-60637520D01*
X192076166Y-60759440D02*
X192259046Y-60759440D01*
X193219166Y-61109960D02*
X193569686Y-61109960D01*
X193447766Y-57879080D02*
X194621246Y-57879080D01*
X194727926Y-59403080D02*
X196160486Y-59403080D01*
X191664686Y-59646920D02*
X196389086Y-59646920D01*
X191817086Y-59281160D02*
X193463006Y-59281160D01*
X194499326Y-61170920D02*
X194514566Y-61170920D01*
X195474686Y-60347960D02*
X195657566Y-60347960D01*
X193082006Y-60256520D02*
X195017486Y-60256520D01*
X193051526Y-60332720D02*
X193615406Y-60332720D01*
X192076166Y-59083040D02*
X195992846Y-59083040D01*
X195474686Y-60317480D02*
X195688046Y-60317480D01*
X193051526Y-57924800D02*
X193325846Y-57924800D01*
X192518126Y-60165080D02*
X195809966Y-60165080D01*
X193676366Y-59403080D02*
X194468846Y-59403080D01*
X191710406Y-59585960D02*
X194560286Y-59585960D01*
X193661126Y-59464040D02*
X194468846Y-59464040D01*
X191893286Y-60485120D02*
X192213326Y-60485120D01*
X193066766Y-57833360D02*
X193203926Y-57833360D01*
X192030446Y-60683240D02*
X192243806Y-60683240D01*
X193478246Y-57772400D02*
X193706846Y-57772400D01*
X195444206Y-60469880D02*
X195550886Y-60469880D01*
X192792446Y-60515600D02*
X193828766Y-60515600D01*
X192015206Y-58732520D02*
X196053806Y-58732520D01*
X193645886Y-59509760D02*
X194484086Y-59509760D01*
X194575526Y-60835640D02*
X195047966Y-60835640D01*
X192320006Y-58686800D02*
X195749006Y-58686800D01*
X195794726Y-60332720D02*
X196236686Y-60332720D01*
X195718526Y-60591800D02*
X196023326Y-60591800D01*
X195474686Y-60332720D02*
X195672806Y-60332720D01*
X193066766Y-57818120D02*
X193188686Y-57818120D01*
X195672806Y-60774680D02*
X195855686Y-60774680D01*
X195672806Y-60759440D02*
X195870926Y-60759440D01*
X195307046Y-58031480D02*
X195383246Y-58031480D01*
X192030446Y-58854440D02*
X196038566Y-58854440D01*
X192106646Y-60805160D02*
X192259046Y-60805160D01*
X192761966Y-60500360D02*
X193813526Y-60500360D01*
X192289526Y-58382000D02*
X192594326Y-58382000D01*
X195688046Y-60698480D02*
X195931886Y-60698480D01*
X192899126Y-60789920D02*
X193325846Y-60789920D01*
X192076166Y-58976360D02*
X195992846Y-58976360D01*
X192655286Y-60393680D02*
X193706846Y-60393680D01*
X193645886Y-59311640D02*
X194499326Y-59311640D01*
X194987006Y-60363200D02*
X195413726Y-60363200D01*
X192167606Y-60866120D02*
X192259046Y-60866120D01*
X191679926Y-60119360D02*
X192411446Y-60119360D01*
X195840446Y-60165080D02*
X196358606Y-60165080D01*
X194468846Y-61170920D02*
X194484086Y-61170920D01*
X191939006Y-60546080D02*
X192228566Y-60546080D01*
X195718526Y-60561320D02*
X196053806Y-60561320D01*
X192746726Y-60485120D02*
X193813526Y-60485120D01*
X193920206Y-57726680D02*
X194148806Y-57726680D01*
X195794726Y-60302240D02*
X196251926Y-60302240D01*
X195489926Y-60271760D02*
X195733766Y-60271760D01*
X191695166Y-60149840D02*
X192426686Y-60149840D01*
X194529806Y-60896600D02*
X195017486Y-60896600D01*
X191786606Y-60287000D02*
X192182846Y-60287000D01*
X191817086Y-60347960D02*
X192198086Y-60347960D01*
X192990566Y-60241280D02*
X195124166Y-60241280D01*
X195840446Y-60180320D02*
X196358606Y-60180320D01*
X191923766Y-60515600D02*
X192228566Y-60515600D01*
X192655286Y-58122920D02*
X192960086Y-58122920D01*
X194362166Y-61109960D02*
X194758406Y-61109960D01*
X193036286Y-58046720D02*
X195032726Y-58046720D01*
X195139406Y-60287000D02*
X195459446Y-60287000D01*
X192960086Y-60896600D02*
X193386806Y-60896600D01*
X194118326Y-60485120D02*
X195291806Y-60485120D01*
X194285966Y-60347960D02*
X194941286Y-60347960D01*
X193889726Y-57772400D02*
X194179286Y-57772400D01*
X192426686Y-60485120D02*
X192518126Y-60485120D01*
X194377406Y-57741920D02*
X194575526Y-57741920D01*
X192579086Y-60287000D02*
X192899126Y-60287000D01*
X195703286Y-60607040D02*
X196008086Y-60607040D01*
X194042126Y-60622280D02*
X195093686Y-60622280D01*
X192335246Y-58671560D02*
X195733766Y-58671560D01*
X195185126Y-60256520D02*
X195474686Y-60256520D01*
X192716246Y-60454640D02*
X193783046Y-60454640D01*
X191786606Y-59220200D02*
X196282406Y-59220200D01*
X191801846Y-59494520D02*
X193432526Y-59494520D01*
X191756126Y-59540240D02*
X193463006Y-59540240D01*
X194072606Y-60546080D02*
X195200366Y-60546080D01*
X192350486Y-58656320D02*
X195718526Y-58656320D01*
X191801846Y-60332720D02*
X192198086Y-60332720D01*
X193645886Y-59525000D02*
X194499326Y-59525000D01*
X192335246Y-58625840D02*
X195733766Y-58625840D01*
X191999966Y-58747760D02*
X196069046Y-58747760D01*
X194666966Y-59570720D02*
X196328126Y-59570720D01*
X194087846Y-60530840D02*
X195215606Y-60530840D01*
X192899126Y-60774680D02*
X193920206Y-60774680D01*
X192320006Y-58702040D02*
X195749006Y-58702040D01*
X194407886Y-61064240D02*
X194849846Y-61064240D01*
X194468846Y-60988040D02*
X194941286Y-60988040D01*
X194712686Y-59326880D02*
X196221446Y-59326880D01*
X192335246Y-58580120D02*
X195733766Y-58580120D01*
X191969486Y-60591800D02*
X192228566Y-60591800D01*
X194712686Y-59509760D02*
X196251926Y-59509760D01*
X192655286Y-58138160D02*
X195413726Y-58138160D01*
X195657566Y-60850880D02*
X195779486Y-60850880D01*
X193661126Y-59326880D02*
X194484086Y-59326880D01*
X192868646Y-60591800D02*
X193874486Y-60591800D01*
X191695166Y-59601200D02*
X196358606Y-59601200D01*
X194697446Y-59311640D02*
X196221446Y-59311640D01*
X191878046Y-59357360D02*
X193432526Y-59357360D01*
X193066766Y-57848600D02*
X193234406Y-57848600D01*
X192944846Y-60881360D02*
X193386806Y-60881360D01*
X193447766Y-57848600D02*
X193783046Y-57848600D01*
X191725646Y-60180320D02*
X192441926Y-60180320D01*
X193615406Y-60820400D02*
X193920206Y-60820400D01*
X195764246Y-60439400D02*
X196145246Y-60439400D01*
X194727926Y-59418320D02*
X196160486Y-59418320D01*
X193661126Y-59357360D02*
X194468846Y-59357360D01*
X192868646Y-60561320D02*
X193859246Y-60561320D01*
X192106646Y-60789920D02*
X192259046Y-60789920D01*
X195459446Y-60424160D02*
X195596606Y-60424160D01*
X192274286Y-60332720D02*
X192487646Y-60332720D01*
X192304766Y-58351520D02*
X192472406Y-58351520D01*
X191664686Y-60073640D02*
X196404326Y-60073640D01*
X194758406Y-57909560D02*
X195017486Y-57909560D01*
X192106646Y-59022080D02*
X195962366Y-59022080D01*
X191679926Y-60104120D02*
X196389086Y-60104120D01*
X195749006Y-60469880D02*
X196130006Y-60469880D01*
X195459446Y-60378440D02*
X195627086Y-60378440D01*
X192304766Y-60363200D02*
X192487646Y-60363200D01*
X193173446Y-60271760D02*
X194910806Y-60271760D01*
X193676366Y-59387840D02*
X194468846Y-59387840D01*
X191634206Y-59966960D02*
X196450046Y-59966960D01*
X192320006Y-58519160D02*
X195749006Y-58519160D01*
X195032726Y-60347960D02*
X195413726Y-60347960D01*
X192624806Y-60363200D02*
X193661126Y-60363200D01*
X192868646Y-60652760D02*
X193904966Y-60652760D01*
X195444206Y-60485120D02*
X195535646Y-60485120D01*
X192685766Y-60424160D02*
X193752566Y-60424160D01*
X192929606Y-60866120D02*
X193371566Y-60866120D01*
X192045686Y-58884920D02*
X196023326Y-58884920D01*
X192457166Y-60515600D02*
X192518126Y-60515600D01*
X193051526Y-61003280D02*
X193478246Y-61003280D01*
X191832326Y-59479280D02*
X193432526Y-59479280D01*
X194316446Y-57818120D02*
X194606006Y-57818120D01*
X195246086Y-58061960D02*
X195413726Y-58061960D01*
X194453606Y-61003280D02*
X194926046Y-61003280D01*
X194560286Y-60850880D02*
X195047966Y-60850880D01*
X192060926Y-58930640D02*
X196008086Y-58930640D01*
X192015206Y-58839200D02*
X196053806Y-58839200D01*
X192030446Y-60698480D02*
X192243806Y-60698480D01*
X194712686Y-57940040D02*
X195017486Y-57940040D01*
X195703286Y-60652760D02*
X195962366Y-60652760D01*
X192655286Y-58229600D02*
X195413726Y-58229600D01*
X193158206Y-61079480D02*
X193539206Y-61079480D01*
X194529806Y-60911840D02*
X195002246Y-60911840D01*
X195825206Y-60226040D02*
X196312886Y-60226040D01*
X195215606Y-58077200D02*
X195413726Y-58077200D01*
X192015206Y-59098280D02*
X196053806Y-59098280D01*
X193082006Y-61033760D02*
X193493486Y-61033760D01*
X193661126Y-59494520D02*
X194484086Y-59494520D01*
X194712686Y-59494520D02*
X196236686Y-59494520D01*
X195459446Y-60408920D02*
X195611846Y-60408920D01*
X194346926Y-61125200D02*
X194727926Y-61125200D01*
X192015206Y-58717280D02*
X196053806Y-58717280D01*
X192655286Y-58351520D02*
X195413726Y-58351520D01*
X192502886Y-60546080D02*
X192518126Y-60546080D01*
X192441926Y-60500360D02*
X192518126Y-60500360D01*
X192807686Y-60530840D02*
X193844006Y-60530840D01*
X194026886Y-60652760D02*
X195093686Y-60652760D01*
X194651726Y-59250680D02*
X196267166Y-59250680D01*
X193066766Y-60317480D02*
X193584926Y-60317480D01*
X191801846Y-59144000D02*
X196267166Y-59144000D01*
X195489926Y-60287000D02*
X195718526Y-60287000D01*
X191649446Y-59692640D02*
X196419566Y-59692640D01*
X191618966Y-59890760D02*
X196450046Y-59890760D01*
X192091406Y-59006840D02*
X195977606Y-59006840D01*
X191771366Y-59525000D02*
X193447766Y-59525000D01*
X192045686Y-58900160D02*
X196023326Y-58900160D01*
X194377406Y-57757160D02*
X194575526Y-57757160D01*
X194697446Y-59296400D02*
X196236686Y-59296400D01*
X193600166Y-59250680D02*
X194545046Y-59250680D01*
X192304766Y-58458200D02*
X195764246Y-58458200D01*
X191725646Y-59570720D02*
X193493486Y-59570720D01*
X195718526Y-60546080D02*
X196053806Y-60546080D01*
X193051526Y-57894320D02*
X193295366Y-57894320D01*
X191634206Y-59951720D02*
X196450046Y-59951720D01*
X193463006Y-57833360D02*
X193767806Y-57833360D01*
X193249646Y-61125200D02*
X193584926Y-61125200D01*
X193402046Y-57940040D02*
X194666966Y-57940040D01*
X191801846Y-60317480D02*
X192182846Y-60317480D01*
X195855686Y-60149840D02*
X196373846Y-60149840D01*
X195444206Y-60439400D02*
X195581366Y-60439400D01*
X192609566Y-60332720D02*
X192975326Y-60332720D01*
X191999966Y-58808720D02*
X196069046Y-58808720D01*
X192640046Y-60378440D02*
X193691606Y-60378440D01*
X192106646Y-59037320D02*
X195962366Y-59037320D01*
X191832326Y-59128760D02*
X196236686Y-59128760D01*
X194712686Y-59479280D02*
X196221446Y-59479280D01*
X192198086Y-60241280D02*
X192457166Y-60241280D01*
X195444206Y-60454640D02*
X195566126Y-60454640D01*
X193036286Y-58001000D02*
X195032726Y-58001000D01*
X192655286Y-58305800D02*
X195413726Y-58305800D01*
X191664686Y-60058400D02*
X196419566Y-60058400D01*
X193036286Y-57970520D02*
X195032726Y-57970520D01*
X192350486Y-60408920D02*
X192502886Y-60408920D01*
X191939006Y-60561320D02*
X192228566Y-60561320D01*
X191664686Y-59662160D02*
X196389086Y-59662160D01*
X194484086Y-60972800D02*
X194956526Y-60972800D01*
X195444206Y-60515600D02*
X195489926Y-60515600D01*
X192914366Y-60835640D02*
X193341086Y-60835640D01*
X191801846Y-59250680D02*
X193493486Y-59250680D01*
X192731486Y-60469880D02*
X193798286Y-60469880D01*
X194727926Y-59387840D02*
X196175726Y-59387840D01*
X191618966Y-59768840D02*
X196434806Y-59768840D01*
X193615406Y-59555480D02*
X194514566Y-59555480D01*
X192457166Y-60119360D02*
X196389086Y-60119360D01*
X191618966Y-59799320D02*
X196450046Y-59799320D01*
X192137126Y-60835640D02*
X192259046Y-60835640D01*
X194011646Y-60759440D02*
X195078446Y-60759440D01*
X193036286Y-60988040D02*
X193463006Y-60988040D01*
X195947126Y-58702040D02*
X196023326Y-58702040D01*
X193447766Y-60805160D02*
X193920206Y-60805160D01*
X191847566Y-59311640D02*
X193447766Y-59311640D01*
X192914366Y-60820400D02*
X193341086Y-60820400D01*
X193188686Y-61094720D02*
X193554446Y-61094720D01*
X195794726Y-60317480D02*
X196251926Y-60317480D01*
X192320006Y-58503920D02*
X195749006Y-58503920D01*
X193935446Y-57711440D02*
X194133566Y-57711440D01*
X194301206Y-57833360D02*
X194606006Y-57833360D01*
X195185126Y-60241280D02*
X195749006Y-60241280D01*
X192060926Y-58915400D02*
X196008086Y-58915400D01*
X195733766Y-60530840D02*
X196069046Y-60530840D01*
X192243806Y-60302240D02*
X192472406Y-60302240D01*
X191817086Y-60363200D02*
X192198086Y-60363200D01*
X195596606Y-58351520D02*
X195764246Y-58351520D01*
X194346926Y-61155680D02*
X194621246Y-61155680D01*
X191634206Y-59997440D02*
X196434806Y-59997440D01*
X194423126Y-57696200D02*
X194560286Y-57696200D01*
X194819366Y-57863840D02*
X195002246Y-57863840D01*
X192883886Y-60744200D02*
X193920206Y-60744200D01*
X194895566Y-57802880D02*
X194987006Y-57802880D01*
X193676366Y-59418320D02*
X194468846Y-59418320D01*
X191786606Y-59509760D02*
X193447766Y-59509760D01*
X191786606Y-59174480D02*
X196282406Y-59174480D01*
X194057366Y-60591800D02*
X195093686Y-60591800D01*
X192304766Y-58488680D02*
X195764246Y-58488680D01*
X194545046Y-60881360D02*
X195032726Y-60881360D01*
X191771366Y-59204960D02*
X196282406Y-59204960D01*
X194865086Y-57833360D02*
X195002246Y-57833360D01*
X193965926Y-57650480D02*
X194103086Y-57650480D01*
X191618966Y-59814560D02*
X196450046Y-59814560D01*
X192655286Y-58107680D02*
X192914366Y-58107680D01*
X192655286Y-58061960D02*
X192822926Y-58061960D01*
X191908526Y-60500360D02*
X192213326Y-60500360D01*
X192563846Y-60271760D02*
X192868646Y-60271760D01*
X192320006Y-58336280D02*
X192411446Y-58336280D01*
X192076166Y-58961120D02*
X195992846Y-58961120D01*
X191862806Y-59342120D02*
X193432526Y-59342120D01*
X194209766Y-60393680D02*
X195383246Y-60393680D01*
X192579086Y-60302240D02*
X192914366Y-60302240D01*
X194697446Y-59525000D02*
X196282406Y-59525000D01*
X194499326Y-60942320D02*
X194987006Y-60942320D01*
X191740886Y-60210800D02*
X192441926Y-60210800D01*
X193645886Y-59296400D02*
X194499326Y-59296400D01*
X193630646Y-59540240D02*
X194499326Y-59540240D01*
X193051526Y-57955280D02*
X195017486Y-57955280D01*
X195733766Y-60500360D02*
X196099526Y-60500360D01*
X192380966Y-60439400D02*
X192518126Y-60439400D01*
X192350486Y-58641080D02*
X195718526Y-58641080D01*
X194682206Y-59555480D02*
X196312886Y-59555480D01*
X191618966Y-59753600D02*
X196434806Y-59753600D01*
X194804126Y-57879080D02*
X195017486Y-57879080D01*
X195672806Y-60744200D02*
X195886166Y-60744200D01*
X192502886Y-60134600D02*
X195840446Y-60134600D01*
D12*
X217516861Y-150099994D02*
G75*
G03*
X219999992Y-147476295I-70261J2553394D01*
G01*
X172477803Y-50100089D02*
G75*
G03*
X169999990Y-52730310I76197J-2554011D01*
G01*
X172488739Y-130703189D02*
G75*
G03*
X169999990Y-133326905I67461J-2556211D01*
G01*
X171331992Y-136824593D02*
X171331992Y-139262993D01*
X169999995Y-147606600D02*
G75*
G03*
X172627800Y-150100005I2560605J67200D01*
G01*
X170000006Y-109815661D02*
G75*
G03*
X172628105Y-112313593I2562994J65061D01*
G01*
X219999992Y-147476295D02*
X219999992Y-52579731D01*
X179078992Y-112313593D02*
X179078992Y-130703193D01*
X179078992Y-112313593D02*
X172628105Y-112313593D01*
X220000000Y-52579731D02*
G75*
G03*
X217374090Y-50100001I-2552800J-73069D01*
G01*
X171331992Y-139262993D02*
X169999990Y-139262993D01*
X172477800Y-50100001D02*
X217374090Y-50100001D01*
X172627800Y-150100005D02*
X217516861Y-150100005D01*
X169999990Y-147606600D02*
X169999990Y-139262993D01*
X179078992Y-130703193D02*
X172488739Y-130703193D01*
X169999990Y-109815661D02*
X169999990Y-52730310D01*
X169999990Y-136824593D02*
X169999990Y-133326905D01*
X169999990Y-136824593D02*
X171331992Y-136824593D01*
D13*
X205139348Y-63893808D02*
X205139348Y-62369808D01*
X204631348Y-63458380D01*
X204123348Y-62369808D01*
X204123348Y-63893808D01*
X202744491Y-63893808D02*
X202744491Y-63095522D01*
X202817063Y-62950380D01*
X202962206Y-62877808D01*
X203252491Y-62877808D01*
X203397634Y-62950380D01*
X202744491Y-63821237D02*
X202889634Y-63893808D01*
X203252491Y-63893808D01*
X203397634Y-63821237D01*
X203470206Y-63676094D01*
X203470206Y-63530951D01*
X203397634Y-63385808D01*
X203252491Y-63313237D01*
X202889634Y-63313237D01*
X202744491Y-63240665D01*
X202018777Y-62877808D02*
X202018777Y-64401808D01*
X202018777Y-62950380D02*
X201873634Y-62877808D01*
X201583348Y-62877808D01*
X201438206Y-62950380D01*
X201365634Y-63022951D01*
X201293063Y-63168094D01*
X201293063Y-63603522D01*
X201365634Y-63748665D01*
X201438206Y-63821237D01*
X201583348Y-63893808D01*
X201873634Y-63893808D01*
X202018777Y-63821237D01*
X200422206Y-63893808D02*
X200567348Y-63821237D01*
X200639920Y-63676094D01*
X200639920Y-62369808D01*
X199261063Y-63821237D02*
X199406206Y-63893808D01*
X199696491Y-63893808D01*
X199841634Y-63821237D01*
X199914206Y-63676094D01*
X199914206Y-63095522D01*
X199841634Y-62950380D01*
X199696491Y-62877808D01*
X199406206Y-62877808D01*
X199261063Y-62950380D01*
X199188491Y-63095522D01*
X199188491Y-63240665D01*
X199914206Y-63385808D01*
X197374206Y-63095522D02*
X196866206Y-63095522D01*
X196648491Y-63893808D02*
X197374206Y-63893808D01*
X197374206Y-62369808D01*
X196648491Y-62369808D01*
X196140491Y-62877808D02*
X195777634Y-63893808D01*
X195414777Y-62877808D02*
X195777634Y-63893808D01*
X195922777Y-64256665D01*
X195995348Y-64329237D01*
X196140491Y-64401808D01*
X194253634Y-63821237D02*
X194398777Y-63893808D01*
X194689063Y-63893808D01*
X194834206Y-63821237D01*
X194906777Y-63676094D01*
X194906777Y-63095522D01*
X194834206Y-62950380D01*
X194689063Y-62877808D01*
X194398777Y-62877808D01*
X194253634Y-62950380D01*
X194181063Y-63095522D01*
X194181063Y-63240665D01*
X194906777Y-63385808D01*
X192439348Y-63458380D02*
X191713634Y-63458380D01*
X192584491Y-63893808D02*
X192076491Y-62369808D01*
X191568491Y-63893808D01*
X190842777Y-63893808D02*
X190987920Y-63821237D01*
X191060491Y-63676094D01*
X191060491Y-62369808D01*
X189681634Y-63821237D02*
X189826777Y-63893808D01*
X190117063Y-63893808D01*
X190262206Y-63821237D01*
X190334777Y-63676094D01*
X190334777Y-63095522D01*
X190262206Y-62950380D01*
X190117063Y-62877808D01*
X189826777Y-62877808D01*
X189681634Y-62950380D01*
X189609063Y-63095522D01*
X189609063Y-63240665D01*
X190334777Y-63385808D01*
X189173634Y-62877808D02*
X188593063Y-62877808D01*
X188955920Y-63893808D02*
X188955920Y-62587522D01*
X188883348Y-62442380D01*
X188738206Y-62369808D01*
X188593063Y-62369808D01*
X205139348Y-65549162D02*
X204631348Y-65549162D01*
X204413634Y-66347448D02*
X205139348Y-66347448D01*
X205139348Y-64823448D01*
X204413634Y-64823448D01*
X203833063Y-66274877D02*
X203615348Y-66347448D01*
X203252491Y-66347448D01*
X203107348Y-66274877D01*
X203034777Y-66202305D01*
X202962206Y-66057162D01*
X202962206Y-65912020D01*
X203034777Y-65766877D01*
X203107348Y-65694305D01*
X203252491Y-65621734D01*
X203542777Y-65549162D01*
X203687920Y-65476591D01*
X203760491Y-65404020D01*
X203833063Y-65258877D01*
X203833063Y-65113734D01*
X203760491Y-64968591D01*
X203687920Y-64896020D01*
X203542777Y-64823448D01*
X203179920Y-64823448D01*
X202962206Y-64896020D01*
X202309063Y-66347448D02*
X202309063Y-64823448D01*
X201728491Y-64823448D01*
X201583348Y-64896020D01*
X201510777Y-64968591D01*
X201438206Y-65113734D01*
X201438206Y-65331448D01*
X201510777Y-65476591D01*
X201583348Y-65549162D01*
X201728491Y-65621734D01*
X202309063Y-65621734D01*
X200930206Y-64823448D02*
X199986777Y-64823448D01*
X200494777Y-65404020D01*
X200277063Y-65404020D01*
X200131920Y-65476591D01*
X200059348Y-65549162D01*
X199986777Y-65694305D01*
X199986777Y-66057162D01*
X200059348Y-66202305D01*
X200131920Y-66274877D01*
X200277063Y-66347448D01*
X200712491Y-66347448D01*
X200857634Y-66274877D01*
X200930206Y-66202305D01*
X199406206Y-64968591D02*
X199333634Y-64896020D01*
X199188491Y-64823448D01*
X198825634Y-64823448D01*
X198680491Y-64896020D01*
X198607920Y-64968591D01*
X198535348Y-65113734D01*
X198535348Y-65258877D01*
X198607920Y-65476591D01*
X199478777Y-66347448D01*
X198535348Y-66347448D01*
X197882206Y-65766877D02*
X196721063Y-65766877D01*
X196067920Y-66274877D02*
X195850206Y-66347448D01*
X195487348Y-66347448D01*
X195342206Y-66274877D01*
X195269634Y-66202305D01*
X195197063Y-66057162D01*
X195197063Y-65912020D01*
X195269634Y-65766877D01*
X195342206Y-65694305D01*
X195487348Y-65621734D01*
X195777634Y-65549162D01*
X195922777Y-65476591D01*
X195995348Y-65404020D01*
X196067920Y-65258877D01*
X196067920Y-65113734D01*
X195995348Y-64968591D01*
X195922777Y-64896020D01*
X195777634Y-64823448D01*
X195414777Y-64823448D01*
X195197063Y-64896020D01*
X194689063Y-64823448D02*
X193745634Y-64823448D01*
X194253634Y-65404020D01*
X194035920Y-65404020D01*
X193890777Y-65476591D01*
X193818206Y-65549162D01*
X193745634Y-65694305D01*
X193745634Y-66057162D01*
X193818206Y-66202305D01*
X193890777Y-66274877D01*
X194035920Y-66347448D01*
X194471348Y-66347448D01*
X194616491Y-66274877D01*
X194689063Y-66202305D01*
D14*
X192197518Y-65239326D02*
X191943518Y-66001326D01*
X191689518Y-65239326D01*
X191036375Y-66001326D02*
X191471804Y-66001326D01*
X191254089Y-66001326D02*
X191254089Y-65239326D01*
X191326661Y-65348183D01*
X191399232Y-65420754D01*
X191471804Y-65457040D01*
X190746089Y-65311897D02*
X190709804Y-65275612D01*
X190637232Y-65239326D01*
X190455804Y-65239326D01*
X190383232Y-65275612D01*
X190346946Y-65311897D01*
X190310661Y-65384469D01*
X190310661Y-65457040D01*
X190346946Y-65565897D01*
X190782375Y-66001326D01*
X190310661Y-66001326D01*
%TO.C,J6*%
X183611800Y-98929314D02*
X183611800Y-99473600D01*
X183648085Y-99582457D01*
X183720657Y-99655028D01*
X183829514Y-99691314D01*
X183902085Y-99691314D01*
X182922371Y-98929314D02*
X183067514Y-98929314D01*
X183140085Y-98965600D01*
X183176371Y-99001885D01*
X183248942Y-99110742D01*
X183285228Y-99255885D01*
X183285228Y-99546171D01*
X183248942Y-99618742D01*
X183212657Y-99655028D01*
X183140085Y-99691314D01*
X182994942Y-99691314D01*
X182922371Y-99655028D01*
X182886085Y-99618742D01*
X182849800Y-99546171D01*
X182849800Y-99364742D01*
X182886085Y-99292171D01*
X182922371Y-99255885D01*
X182994942Y-99219600D01*
X183140085Y-99219600D01*
X183212657Y-99255885D01*
X183248942Y-99292171D01*
X183285228Y-99364742D01*
X187040085Y-88502914D02*
X187475514Y-88502914D01*
X187257800Y-88502914D02*
X187257800Y-87740914D01*
X187330371Y-87849771D01*
X187402942Y-87922342D01*
X187475514Y-87958628D01*
X197715342Y-88502914D02*
X198150771Y-88502914D01*
X197933057Y-88502914D02*
X197933057Y-87740914D01*
X198005628Y-87849771D01*
X198078200Y-87922342D01*
X198150771Y-87958628D01*
X197425057Y-87813485D02*
X197388771Y-87777200D01*
X197316200Y-87740914D01*
X197134771Y-87740914D01*
X197062200Y-87777200D01*
X197025914Y-87813485D01*
X196989628Y-87886057D01*
X196989628Y-87958628D01*
X197025914Y-88067485D01*
X197461342Y-88502914D01*
X196989628Y-88502914D01*
D15*
%TO.C,MENU1*%
X218560203Y-77101985D02*
G75*
G03*
X218575051Y-77100779I40322J-404435D01*
G01*
X216760203Y-77101985D02*
G75*
G03*
X216775051Y-77100779I40322J-404435D01*
G01*
%TO.C,DOWN1*%
X216760203Y-68001985D02*
G75*
G03*
X216775051Y-68000779I40322J-404435D01*
G01*
X218560203Y-68001985D02*
G75*
G03*
X218575051Y-68000779I40322J-404435D01*
G01*
%TO.C,UP1*%
X218560203Y-59001985D02*
G75*
G03*
X218575051Y-59000779I40322J-404435D01*
G01*
X216760203Y-59001985D02*
G75*
G03*
X216775051Y-59000779I40322J-404435D01*
G01*
%TO.C,PLAY1*%
X216760203Y-86101985D02*
G75*
G03*
X216775051Y-86100779I40322J-404435D01*
G01*
X218560203Y-86101985D02*
G75*
G03*
X218575051Y-86100779I40322J-404435D01*
G01*
D16*
%TO.C,J6*%
X182000000Y-89149000D02*
X187892800Y-89148800D01*
X208035000Y-89149000D02*
X196300200Y-89149000D01*
X208085800Y-96459000D02*
X181949200Y-96459000D01*
X208084800Y-100279000D02*
X181924800Y-100279000D01*
X181924800Y-100279000D02*
X181924800Y-71059000D01*
X181924800Y-71059000D02*
X208084800Y-71059000D01*
X208084800Y-71059000D02*
X208084800Y-100279000D01*
%TD*%
M02*
