%TF.GenerationSoftware,KiCad,Pcbnew,6.0.6-3a73a75311~116~ubuntu20.04.1*%
%TF.CreationDate,2022-08-17T13:19:53+08:00*%
%TF.ProjectId,Maple_Eye_Alef_V12,4d61706c-655f-4457-9965-5f416c65665f,rev?*%
%TF.SameCoordinates,Original*%
%TF.FileFunction,Paste,Top*%
%TF.FilePolarity,Positive*%
%FSLAX46Y46*%
G04 Gerber Fmt 4.6, Leading zero omitted, Abs format (unit mm)*
G04 Created by KiCad (PCBNEW 6.0.6-3a73a75311~116~ubuntu20.04.1) date 2022-08-17 13:19:53*
%MOMM*%
%LPD*%
G01*
G04 APERTURE LIST*
G04 Aperture macros list*
%AMRoundRect*
0 Rectangle with rounded corners*
0 $1 Rounding radius*
0 $2 $3 $4 $5 $6 $7 $8 $9 X,Y pos of 4 corners*
0 Add a 4 corners polygon primitive as box body*
4,1,4,$2,$3,$4,$5,$6,$7,$8,$9,$2,$3,0*
0 Add four circle primitives for the rounded corners*
1,1,$1+$1,$2,$3*
1,1,$1+$1,$4,$5*
1,1,$1+$1,$6,$7*
1,1,$1+$1,$8,$9*
0 Add four rect primitives between the rounded corners*
20,1,$1+$1,$2,$3,$4,$5,0*
20,1,$1+$1,$4,$5,$6,$7,0*
20,1,$1+$1,$6,$7,$8,$9,0*
20,1,$1+$1,$8,$9,$2,$3,0*%
G04 Aperture macros list end*
%TA.AperFunction,Profile*%
%ADD10C,0.150000*%
%TD*%
%TA.AperFunction,Profile*%
%ADD11C,0.100000*%
%TD*%
%ADD12R,0.600000X0.550000*%
%ADD13R,0.550000X0.600000*%
%ADD14R,1.450000X0.550000*%
%ADD15R,1.450010X0.550012*%
%ADD16R,0.500000X0.600000*%
%ADD17R,0.550000X1.450000*%
%ADD18R,0.550012X1.450010*%
%ADD19RoundRect,0.250000X0.850000X-0.375000X0.850000X0.375000X-0.850000X0.375000X-0.850000X-0.375000X0*%
%ADD20R,0.999998X0.914400*%
%ADD21R,1.270000X0.914400*%
%ADD22R,0.600000X0.500000*%
%ADD23R,0.500000X0.280010*%
%ADD24R,0.280010X0.500000*%
%ADD25RoundRect,0.100000X0.100000X-1.900000X0.100000X1.900000X-0.100000X1.900000X-0.100000X-1.900000X0*%
%ADD26R,0.759460X1.270000*%
%ADD27RoundRect,0.140000X-0.140000X-0.140000X0.140000X-0.140000X0.140000X0.140000X-0.140000X0.140000X0*%
%ADD28RoundRect,0.062500X-0.325000X-0.062500X0.325000X-0.062500X0.325000X0.062500X-0.325000X0.062500X0*%
%ADD29R,1.700000X1.000000*%
%ADD30R,0.300000X0.800000*%
%ADD31R,0.400000X0.800000*%
%ADD32R,4.599991X1.000000*%
%ADD33R,3.399993X1.600000*%
%ADD34R,0.381000X1.524000*%
%ADD35R,1.600000X1.397000*%
%ADD36R,1.500000X1.500000*%
%ADD37R,2.032000X2.032000*%
%ADD38R,1.000000X0.950000*%
%ADD39R,1.000000X0.700000*%
%ADD40R,1.500000X2.000000*%
%ADD41R,3.800000X1.200000*%
%ADD42R,1.400000X1.450000*%
%ADD43R,0.600000X1.000000*%
%ADD44R,0.850000X0.950000*%
%ADD45R,1.250000X0.600000*%
%ADD46R,0.600000X0.900000*%
%ADD47R,0.899998X1.499997*%
%ADD48R,1.499997X0.899998*%
%ADD49R,3.699993X3.699993*%
G04 APERTURE END LIST*
D10*
X217516861Y-150099994D02*
G75*
G03*
X219999992Y-147476295I-70261J2553394D01*
G01*
X172477803Y-50100089D02*
G75*
G03*
X169999990Y-52730310I76197J-2554011D01*
G01*
X172488739Y-130703189D02*
G75*
G03*
X169999990Y-133326905I67461J-2556211D01*
G01*
X171331992Y-136824593D02*
X171331992Y-139262993D01*
X169999995Y-147606600D02*
G75*
G03*
X172627800Y-150100005I2560605J67200D01*
G01*
X170000006Y-109815661D02*
G75*
G03*
X172628105Y-112313593I2562994J65061D01*
G01*
X219999992Y-147476295D02*
X219999992Y-52579731D01*
X179078992Y-112313593D02*
X179078992Y-130703193D01*
X179078992Y-112313593D02*
X172628105Y-112313593D01*
X220000000Y-52579731D02*
G75*
G03*
X217374090Y-50100001I-2552800J-73069D01*
G01*
X171331992Y-139262993D02*
X169999990Y-139262993D01*
X172477800Y-50100001D02*
X217374090Y-50100001D01*
X172627800Y-150100005D02*
X217516861Y-150100005D01*
X169999990Y-147606600D02*
X169999990Y-139262993D01*
X179078992Y-130703193D02*
X172488739Y-130703193D01*
X169999990Y-109815661D02*
X169999990Y-52730310D01*
X169999990Y-136824593D02*
X169999990Y-133326905D01*
X169999990Y-136824593D02*
X171331992Y-136824593D01*
D11*
%TO.C,MENU1*%
X218560203Y-77101985D02*
G75*
G03*
X218575051Y-77100779I40322J-404435D01*
G01*
X216760203Y-77101985D02*
G75*
G03*
X216775051Y-77100779I40322J-404435D01*
G01*
%TO.C,DOWN1*%
X216760203Y-68001985D02*
G75*
G03*
X216775051Y-68000779I40322J-404435D01*
G01*
X218560203Y-68001985D02*
G75*
G03*
X218575051Y-68000779I40322J-404435D01*
G01*
%TO.C,UP1*%
X218560203Y-59001985D02*
G75*
G03*
X218575051Y-59000779I40322J-404435D01*
G01*
X216760203Y-59001985D02*
G75*
G03*
X216775051Y-59000779I40322J-404435D01*
G01*
%TO.C,PLAY1*%
X216760203Y-86101985D02*
G75*
G03*
X216775051Y-86100779I40322J-404435D01*
G01*
X218560203Y-86101985D02*
G75*
G03*
X218575051Y-86100779I40322J-404435D01*
G01*
%TD*%
D12*
%TO.C,R51*%
X209927800Y-133956600D03*
X210927802Y-133956600D03*
%TD*%
D13*
%TO.C,R6*%
X184500000Y-147900000D03*
X184500000Y-146899998D03*
%TD*%
D12*
%TO.C,R7*%
X218200000Y-71800000D03*
X217199998Y-71800000D03*
%TD*%
D14*
%TO.C,U4*%
X178474604Y-69666987D03*
D15*
X178474600Y-70617000D03*
X178474600Y-71566985D03*
X180624608Y-71566985D03*
X180624608Y-69666989D03*
%TD*%
D13*
%TO.C,R49*%
X174024400Y-86820000D03*
X174024400Y-87820002D03*
%TD*%
D16*
%TO.C,C19*%
X176869200Y-73383400D03*
X176869200Y-74383402D03*
%TD*%
D13*
%TO.C,R61*%
X176945400Y-93203398D03*
X176945400Y-94203400D03*
%TD*%
D17*
%TO.C,U8*%
X204137813Y-145766604D03*
D18*
X203187800Y-145766600D03*
X202237815Y-145766600D03*
X202237815Y-147916608D03*
X204137811Y-147916608D03*
%TD*%
D19*
%TO.C,L1*%
X203207800Y-143771600D03*
X203207800Y-141621600D03*
%TD*%
D13*
%TO.C,R50*%
X174989600Y-86820000D03*
X174989600Y-87820002D03*
%TD*%
D12*
%TO.C,R27*%
X200900000Y-118300000D03*
X201900002Y-118300000D03*
%TD*%
%TO.C,R1*%
X217200000Y-81000000D03*
X218200002Y-81000000D03*
%TD*%
%TO.C,R44*%
X201900000Y-124700000D03*
X200899998Y-124700000D03*
%TD*%
%TO.C,R17*%
X218100000Y-104100000D03*
X217099998Y-104100000D03*
%TD*%
D16*
%TO.C,C20*%
X190200000Y-75800000D03*
X190200000Y-76800002D03*
%TD*%
%TO.C,C30*%
X206407800Y-145196600D03*
X206407800Y-146196602D03*
%TD*%
D20*
%TO.C,Q1*%
X184725298Y-144196611D03*
X184725298Y-142296615D03*
D21*
X182125303Y-143246600D03*
%TD*%
D20*
%TO.C,Q3*%
X212425298Y-87196611D03*
X212425298Y-85296615D03*
D21*
X209825303Y-86246600D03*
%TD*%
D22*
%TO.C,C24*%
X212400000Y-118705400D03*
X211399998Y-118705400D03*
%TD*%
D12*
%TO.C,R28*%
X200900000Y-117100000D03*
X201900002Y-117100000D03*
%TD*%
D13*
%TO.C,R34*%
X185642108Y-133000002D03*
X185642108Y-132000000D03*
%TD*%
D23*
%TO.C,U7*%
X208282753Y-134506611D03*
X208282753Y-134006612D03*
X208282753Y-133506588D03*
X208282753Y-133006589D03*
D24*
X207657812Y-132881570D03*
X207157787Y-132881570D03*
D23*
X206532846Y-133006589D03*
X206532846Y-133506588D03*
X206532846Y-134006612D03*
X206532846Y-134506611D03*
D24*
X207157787Y-134631630D03*
X207657812Y-134631630D03*
%TD*%
D16*
%TO.C,C13*%
X193328400Y-75745600D03*
X193328400Y-76745602D03*
%TD*%
D12*
%TO.C,R41*%
X201900000Y-120900000D03*
X200899998Y-120900000D03*
%TD*%
%TO.C,R53*%
X211400000Y-121600000D03*
X212400002Y-121600000D03*
%TD*%
D13*
%TO.C,R60*%
X175015000Y-93238200D03*
X175015000Y-94238202D03*
%TD*%
D16*
%TO.C,C26*%
X206027800Y-131356600D03*
X206027800Y-130356598D03*
%TD*%
D14*
%TO.C,U2*%
X184426200Y-137810202D03*
D15*
X184426196Y-138760215D03*
X184426196Y-139710200D03*
X186576204Y-139710200D03*
X186576204Y-137810204D03*
%TD*%
D13*
%TO.C,R9*%
X194511000Y-142217402D03*
X194511000Y-141217400D03*
%TD*%
D22*
%TO.C,C11*%
X211954600Y-99435800D03*
X212954602Y-99435800D03*
%TD*%
D25*
%TO.C,J5*%
X201770000Y-96480000D03*
X201070000Y-96480000D03*
X200370000Y-96480000D03*
X199670000Y-96480000D03*
X198970000Y-96480000D03*
X198270000Y-96480000D03*
X197570000Y-96480000D03*
X196870000Y-96480000D03*
X196170000Y-96480000D03*
X195470000Y-96480000D03*
X194770000Y-96480000D03*
X194070000Y-96480000D03*
%TD*%
D13*
%TO.C,R38*%
X189400000Y-133000000D03*
X189400000Y-131999998D03*
%TD*%
D26*
%TO.C,SW1*%
X211572800Y-109866600D03*
X212842800Y-109866600D03*
X212842800Y-102246600D03*
X211572800Y-102246600D03*
%TD*%
D13*
%TO.C,R18*%
X192457800Y-137946600D03*
X192457800Y-136946598D03*
%TD*%
D12*
%TO.C,R52*%
X211400000Y-117300000D03*
X212400002Y-117300000D03*
%TD*%
D27*
%TO.C,U3*%
X204657800Y-138046600D03*
X203957800Y-138046600D03*
X203957800Y-138746600D03*
X204657800Y-138746600D03*
D28*
X202845300Y-137646600D03*
X202845300Y-138146600D03*
X202845300Y-138646600D03*
X202845300Y-139146600D03*
X205770300Y-139146600D03*
X205770300Y-138646600D03*
X205770300Y-138146600D03*
X205770300Y-137646600D03*
%TD*%
D16*
%TO.C,C12*%
X200907800Y-142046600D03*
X200907800Y-143046602D03*
%TD*%
%TO.C,C18*%
X176875004Y-69699985D03*
X176875004Y-70699987D03*
%TD*%
D13*
%TO.C,R62*%
X173211600Y-93238200D03*
X173211600Y-94238202D03*
%TD*%
%TO.C,R47*%
X211137800Y-111556600D03*
X211137800Y-112556602D03*
%TD*%
D12*
%TO.C,R5*%
X186400000Y-143600000D03*
X187400002Y-143600000D03*
%TD*%
%TO.C,R54*%
X211400000Y-123000000D03*
X212400002Y-123000000D03*
%TD*%
%TO.C,R32*%
X179833000Y-108478200D03*
X178832998Y-108478200D03*
%TD*%
D16*
%TO.C,C29*%
X179487800Y-91431800D03*
X179487800Y-90431798D03*
%TD*%
D13*
%TO.C,R64*%
X213757800Y-86246600D03*
X213757800Y-87246602D03*
%TD*%
D12*
%TO.C,R69*%
X200088000Y-138896600D03*
X201088002Y-138896600D03*
%TD*%
%TO.C,R23*%
X215600000Y-96800000D03*
X216600002Y-96800000D03*
%TD*%
D29*
%TO.C,MENU1*%
X217700000Y-79600000D03*
X217700000Y-75400000D03*
%TD*%
D22*
%TO.C,D4*%
X211887802Y-137281800D03*
X210887800Y-137281800D03*
%TD*%
D12*
%TO.C,R10*%
X217100000Y-62900000D03*
X218100002Y-62900000D03*
%TD*%
D30*
%TO.C,J4*%
X189250000Y-73750000D03*
X189750000Y-73750000D03*
X190250000Y-73750000D03*
X190750000Y-73750000D03*
X191250000Y-73750000D03*
X191750000Y-73750000D03*
X192250000Y-73750000D03*
X192750000Y-73750000D03*
X193250000Y-73750000D03*
X193750000Y-73750000D03*
X194250000Y-73750000D03*
X194750000Y-73750000D03*
X195250000Y-73750000D03*
X195750000Y-73750000D03*
X196250000Y-73750000D03*
X196750000Y-73750000D03*
X197250000Y-73750000D03*
X197750000Y-73750000D03*
X198250000Y-73750000D03*
X198750000Y-73750000D03*
X199250000Y-73750000D03*
X199750000Y-73750000D03*
X200250000Y-73750000D03*
X200750000Y-73750000D03*
D31*
X201750000Y-71250000D03*
X188250000Y-71250000D03*
%TD*%
D13*
%TO.C,R2*%
X208800000Y-144600000D03*
X208800000Y-143599998D03*
%TD*%
D32*
%TO.C,J2*%
X178003793Y-139119998D03*
X178003793Y-137120002D03*
D33*
X172803803Y-141520044D03*
X172803803Y-134719956D03*
%TD*%
D20*
%TO.C,Q5*%
X212425298Y-83596611D03*
X212425298Y-81696615D03*
D21*
X209825303Y-82646600D03*
%TD*%
D22*
%TO.C,C23*%
X209927800Y-132956600D03*
X210927802Y-132956600D03*
%TD*%
D34*
%TO.C,J1*%
X193700003Y-144549987D03*
X194349989Y-144549987D03*
X195000000Y-144549987D03*
X195650011Y-144549987D03*
X196299997Y-144549987D03*
D35*
X191600007Y-144726999D03*
D36*
X195999998Y-147799993D03*
D37*
X191774200Y-147475000D03*
D35*
X198399993Y-144726999D03*
D36*
X194000002Y-147799993D03*
D37*
X198225800Y-147475000D03*
%TD*%
D22*
%TO.C,C25*%
X212400000Y-119645200D03*
X211399998Y-119645200D03*
%TD*%
D16*
%TO.C,C1*%
X208800000Y-146900000D03*
X208800000Y-145899998D03*
%TD*%
D13*
%TO.C,R63*%
X174126000Y-93220800D03*
X174126000Y-94220802D03*
%TD*%
D38*
%TO.C,R21*%
X212300000Y-93100000D03*
X213899998Y-93100000D03*
%TD*%
D13*
%TO.C,R48*%
X212007800Y-111556600D03*
X212007800Y-112556602D03*
%TD*%
D20*
%TO.C,Q2*%
X214067498Y-96850011D03*
X214067498Y-94950015D03*
D21*
X211467503Y-95900000D03*
%TD*%
D22*
%TO.C,C8*%
X217100000Y-103100000D03*
X218100002Y-103100000D03*
%TD*%
D16*
%TO.C,C7*%
X188300000Y-139700000D03*
X188300000Y-138699998D03*
%TD*%
D13*
%TO.C,R24*%
X191400000Y-76800000D03*
X191400000Y-75799998D03*
%TD*%
D12*
%TO.C,R45*%
X201900000Y-126000000D03*
X200899998Y-126000000D03*
%TD*%
D13*
%TO.C,R3*%
X182500000Y-147900000D03*
X182500000Y-146899998D03*
%TD*%
D12*
%TO.C,R13*%
X188200000Y-137600000D03*
X189200002Y-137600000D03*
%TD*%
%TO.C,R12*%
X186407800Y-145746600D03*
X187407802Y-145746600D03*
%TD*%
D39*
%TO.C,D3*%
X187950000Y-141400000D03*
X191650000Y-141400000D03*
%TD*%
D16*
%TO.C,C16*%
X196400000Y-75700000D03*
X196400000Y-76700002D03*
%TD*%
D29*
%TO.C,DOWN1*%
X217700000Y-70500000D03*
X217700000Y-66300000D03*
%TD*%
D16*
%TO.C,C17*%
X189200000Y-75800000D03*
X189200000Y-76800002D03*
%TD*%
D13*
%TO.C,R72*%
X205407800Y-146196600D03*
X205407800Y-145196598D03*
%TD*%
D22*
%TO.C,C31*%
X201088000Y-139846600D03*
X200087998Y-139846600D03*
%TD*%
D13*
%TO.C,R73*%
X205407800Y-148446600D03*
X205407800Y-147446598D03*
%TD*%
%TO.C,R8*%
X195400000Y-142200000D03*
X195400000Y-141199998D03*
%TD*%
%TO.C,R77*%
X213757800Y-82346600D03*
X213757800Y-83346602D03*
%TD*%
D16*
%TO.C,C9*%
X200707800Y-147996600D03*
X200707800Y-146996598D03*
%TD*%
D13*
%TO.C,R36*%
X188142108Y-133000000D03*
X188142108Y-131999998D03*
%TD*%
D12*
%TO.C,R19*%
X182550800Y-145740000D03*
X181550798Y-145740000D03*
%TD*%
D16*
%TO.C,C27*%
X206927800Y-131356600D03*
X206927800Y-130356598D03*
%TD*%
D22*
%TO.C,C10*%
X211954600Y-98435800D03*
X212954602Y-98435800D03*
%TD*%
D16*
%TO.C,C4*%
X182700000Y-139700000D03*
X182700000Y-138699998D03*
%TD*%
%TO.C,C15*%
X194242800Y-75720200D03*
X194242800Y-76720202D03*
%TD*%
D22*
%TO.C,D1*%
X186399998Y-142700000D03*
X187400000Y-142700000D03*
%TD*%
D13*
%TO.C,R35*%
X186842108Y-133000000D03*
X186842108Y-131999998D03*
%TD*%
D16*
%TO.C,C21*%
X182318204Y-69677185D03*
X182318204Y-70677187D03*
%TD*%
D12*
%TO.C,R14*%
X187407800Y-144846600D03*
X186407798Y-144846600D03*
%TD*%
D40*
%TO.C,EN1*%
X179000000Y-148600000D03*
X179000000Y-143600000D03*
%TD*%
D16*
%TO.C,C22*%
X182275004Y-73399985D03*
X182275004Y-74399987D03*
%TD*%
D13*
%TO.C,R30*%
X215507800Y-98456600D03*
X215507800Y-99456602D03*
%TD*%
D29*
%TO.C,UP1*%
X217700000Y-61500000D03*
X217700000Y-57300000D03*
%TD*%
D40*
%TO.C,BOOT1*%
X211000000Y-148600000D03*
X211000000Y-143600000D03*
%TD*%
D22*
%TO.C,C32*%
X201088000Y-136946600D03*
X200087998Y-136946600D03*
%TD*%
D12*
%TO.C,R68*%
X200088000Y-137946600D03*
X201088002Y-137946600D03*
%TD*%
D16*
%TO.C,C3*%
X183500000Y-146900000D03*
X183500000Y-147900002D03*
%TD*%
%TO.C,D2*%
X192457800Y-139946602D03*
X192457800Y-138946600D03*
%TD*%
D12*
%TO.C,R56*%
X212400000Y-123900000D03*
X211399998Y-123900000D03*
%TD*%
D13*
%TO.C,R76*%
X213757800Y-91246600D03*
X213757800Y-90246598D03*
%TD*%
D20*
%TO.C,Q4*%
X212425298Y-90696611D03*
X212425298Y-88796615D03*
D21*
X209825303Y-89746600D03*
%TD*%
D13*
%TO.C,R46*%
X194500000Y-133000000D03*
X194500000Y-131999998D03*
%TD*%
D22*
%TO.C,C5*%
X181600000Y-132300000D03*
X180599998Y-132300000D03*
%TD*%
D12*
%TO.C,R70*%
X208588000Y-139146600D03*
X207587998Y-139146600D03*
%TD*%
D41*
%TO.C,J7*%
X217200000Y-125200000D03*
D42*
X216400000Y-114700000D03*
D43*
X217650000Y-114500000D03*
D44*
X218700000Y-115400000D03*
D45*
X214700000Y-116350000D03*
X214700000Y-117450000D03*
X214700000Y-118550000D03*
X214700000Y-119650000D03*
X214700000Y-120750000D03*
X214700000Y-121850000D03*
X214700000Y-122950000D03*
X214700000Y-124050000D03*
%TD*%
D13*
%TO.C,R26*%
X185600000Y-110900000D03*
X185600000Y-109899998D03*
%TD*%
D12*
%TO.C,R66*%
X178832998Y-107546600D03*
X179833000Y-107546600D03*
%TD*%
D13*
%TO.C,R22*%
X192287000Y-76796400D03*
X192287000Y-75796398D03*
%TD*%
D12*
%TO.C,R58*%
X212400000Y-116400000D03*
X211399998Y-116400000D03*
%TD*%
D38*
%TO.C,R67*%
X178257800Y-85046600D03*
X176657802Y-85046600D03*
%TD*%
D16*
%TO.C,C2*%
X181500000Y-147900000D03*
X181500000Y-146899998D03*
%TD*%
D13*
%TO.C,R37*%
X190700000Y-133000000D03*
X190700000Y-131999998D03*
%TD*%
%TO.C,R29*%
X214577800Y-98446600D03*
X214577800Y-99446602D03*
%TD*%
D12*
%TO.C,R42*%
X201900000Y-122100000D03*
X200899998Y-122100000D03*
%TD*%
%TO.C,R16*%
X210887800Y-136256600D03*
X209887798Y-136256600D03*
%TD*%
D22*
%TO.C,C6*%
X181600000Y-133200000D03*
X180599998Y-133200000D03*
%TD*%
D13*
%TO.C,R59*%
X175980200Y-93238200D03*
X175980200Y-94238202D03*
%TD*%
D29*
%TO.C,PLAY1*%
X217700000Y-88600000D03*
X217700000Y-84400000D03*
%TD*%
D12*
%TO.C,R15*%
X210803602Y-138221600D03*
X211803604Y-138221600D03*
%TD*%
D13*
%TO.C,R39*%
X191942108Y-133000000D03*
X191942108Y-131999998D03*
%TD*%
D16*
%TO.C,C28*%
X178522600Y-91439800D03*
X178522600Y-90439798D03*
%TD*%
D12*
%TO.C,R20*%
X184836800Y-145740000D03*
X183836798Y-145740000D03*
%TD*%
%TO.C,R55*%
X209927800Y-134846600D03*
X210927802Y-134846600D03*
%TD*%
D46*
%TO.C,U6*%
X177000000Y-89550000D03*
X176000000Y-89550000D03*
X175000000Y-89550000D03*
X174000000Y-89550000D03*
X174000000Y-91450000D03*
X175000000Y-91450000D03*
X176000000Y-91450000D03*
X177000000Y-91450000D03*
%TD*%
D13*
%TO.C,R74*%
X213757800Y-84246600D03*
X213757800Y-85246602D03*
%TD*%
%TO.C,R75*%
X213757800Y-88246600D03*
X213757800Y-89246602D03*
%TD*%
D47*
%TO.C,U1*%
X180543504Y-130252395D03*
X181813504Y-130252395D03*
X183083504Y-130252395D03*
X184353504Y-130252395D03*
X185623504Y-130252395D03*
X186893504Y-130252395D03*
X188163504Y-130252395D03*
X189433504Y-130252395D03*
X190703504Y-130252395D03*
X191973504Y-130252395D03*
X193243504Y-130252395D03*
X194513504Y-130252395D03*
X195783504Y-130252395D03*
X197053504Y-130252395D03*
D48*
X198333510Y-128487400D03*
X198333486Y-127217400D03*
X198333486Y-125947400D03*
X198333486Y-124677400D03*
X198333486Y-123407400D03*
X198333486Y-122137400D03*
X198333486Y-120867400D03*
X198333486Y-119597400D03*
X198333486Y-118327400D03*
X198333486Y-117057400D03*
X198333486Y-115787400D03*
X198303489Y-114517400D03*
D47*
X197053504Y-112752405D03*
X195783504Y-112752405D03*
X194513504Y-112752405D03*
X193243504Y-112752405D03*
X191973504Y-112752405D03*
X190703504Y-112752405D03*
X189433504Y-112752405D03*
X188163504Y-112752405D03*
X186893504Y-112752405D03*
X185623504Y-112752405D03*
X184353504Y-112752405D03*
X183083504Y-112752405D03*
X181813504Y-112752405D03*
X180543504Y-112752405D03*
D49*
X188263529Y-123002397D03*
%TD*%
D13*
%TO.C,R65*%
X210457800Y-93146600D03*
X210457800Y-92146598D03*
%TD*%
D12*
%TO.C,R43*%
X201900000Y-123400000D03*
X200899998Y-123400000D03*
%TD*%
D13*
%TO.C,R33*%
X184300000Y-133000000D03*
X184300000Y-131999998D03*
%TD*%
D14*
%TO.C,U5*%
X178500004Y-73349987D03*
D15*
X178500000Y-74300000D03*
X178500000Y-75249985D03*
X180650008Y-75249985D03*
X180650008Y-73349989D03*
%TD*%
D12*
%TO.C,R31*%
X179833000Y-109341800D03*
X178832998Y-109341800D03*
%TD*%
D13*
%TO.C,R40*%
X193242108Y-133000000D03*
X193242108Y-131999998D03*
%TD*%
D12*
%TO.C,R57*%
X212400000Y-120700000D03*
X211399998Y-120700000D03*
%TD*%
D13*
%TO.C,R25*%
X184342108Y-110900000D03*
X184342108Y-109899998D03*
%TD*%
D12*
%TO.C,R4*%
X217200000Y-89900000D03*
X218200002Y-89900000D03*
%TD*%
%TO.C,R11*%
X218100000Y-102100000D03*
X217099998Y-102100000D03*
%TD*%
D16*
%TO.C,C14*%
X195500000Y-75700000D03*
X195500000Y-76700002D03*
%TD*%
M02*
